<mxfile host="app.diagrams.net" modified="2022-03-04T09:25:12.939Z" agent="5.0 (Windows NT 10.0; Win64; x64) AppleWebKit/537.36 (KHTML, like Gecko) Chrome/99.0.4844.51 Safari/537.36" etag="TBJP55d-7kG42I2di4hP" version="16.6.4" type="github" pages="7">
  <diagram id="QtePVaprWK_kAKJ1ItFh" name="UML">
    <mxGraphModel dx="827" dy="1108" grid="1" gridSize="10" guides="1" tooltips="1" connect="1" arrows="1" fold="1" page="1" pageScale="1" pageWidth="827" pageHeight="1169" math="0" shadow="0">
      <root>
        <mxCell id="0" />
        <mxCell id="1" parent="0" />
        <mxCell id="PrW0b_lZdQNC7OUzNC1I-7" style="edgeStyle=orthogonalEdgeStyle;rounded=0;orthogonalLoop=1;jettySize=auto;html=1;exitX=0.75;exitY=0;exitDx=0;exitDy=0;entryX=0.43;entryY=-0.01;entryDx=0;entryDy=0;entryPerimeter=0;" parent="1" source="PrW0b_lZdQNC7OUzNC1I-1" target="PrW0b_lZdQNC7OUzNC1I-9" edge="1">
          <mxGeometry relative="1" as="geometry">
            <mxPoint x="530" y="90" as="targetPoint" />
            <Array as="points">
              <mxPoint x="200" y="70" />
              <mxPoint x="636" y="70" />
            </Array>
          </mxGeometry>
        </mxCell>
        <mxCell id="PrW0b_lZdQNC7OUzNC1I-21" style="edgeStyle=orthogonalEdgeStyle;rounded=0;orthogonalLoop=1;jettySize=auto;html=1;exitX=1;exitY=0.5;exitDx=0;exitDy=0;entryX=0.25;entryY=0;entryDx=0;entryDy=0;" parent="1" source="PrW0b_lZdQNC7OUzNC1I-1" target="PrW0b_lZdQNC7OUzNC1I-13" edge="1">
          <mxGeometry relative="1" as="geometry">
            <mxPoint x="420" y="380" as="targetPoint" />
            <Array as="points">
              <mxPoint x="410" y="230" />
            </Array>
          </mxGeometry>
        </mxCell>
        <mxCell id="PrW0b_lZdQNC7OUzNC1I-1" value="Album" style="swimlane;" parent="1" vertex="1">
          <mxGeometry x="50" y="130" width="200" height="240" as="geometry" />
        </mxCell>
        <mxCell id="PrW0b_lZdQNC7OUzNC1I-2" value="- name: string" style="text;html=1;align=center;verticalAlign=middle;resizable=0;points=[];autosize=1;strokeColor=none;fillColor=none;" parent="PrW0b_lZdQNC7OUzNC1I-1" vertex="1">
          <mxGeometry y="30" width="90" height="20" as="geometry" />
        </mxCell>
        <mxCell id="PrW0b_lZdQNC7OUzNC1I-3" value="- releaseDate: date" style="text;html=1;align=center;verticalAlign=middle;resizable=0;points=[];autosize=1;strokeColor=none;fillColor=none;" parent="PrW0b_lZdQNC7OUzNC1I-1" vertex="1">
          <mxGeometry y="50" width="120" height="20" as="geometry" />
        </mxCell>
        <mxCell id="PrW0b_lZdQNC7OUzNC1I-5" value="- media: media" style="text;html=1;align=center;verticalAlign=middle;resizable=0;points=[];autosize=1;strokeColor=none;fillColor=none;" parent="PrW0b_lZdQNC7OUzNC1I-1" vertex="1">
          <mxGeometry y="70" width="90" height="20" as="geometry" />
        </mxCell>
        <mxCell id="uJzvbrtq1FeZPgEqLkso-1" value="- description: RTE" style="text;html=1;align=center;verticalAlign=middle;resizable=0;points=[];autosize=1;strokeColor=none;fillColor=none;" parent="PrW0b_lZdQNC7OUzNC1I-1" vertex="1">
          <mxGeometry y="93" width="110" height="20" as="geometry" />
        </mxCell>
        <mxCell id="uJzvbrtq1FeZPgEqLkso-2" value="- teaser: text" style="text;html=1;align=center;verticalAlign=middle;resizable=0;points=[];autosize=1;strokeColor=none;fillColor=none;" parent="PrW0b_lZdQNC7OUzNC1I-1" vertex="1">
          <mxGeometry y="113" width="80" height="20" as="geometry" />
        </mxCell>
        <mxCell id="x7zoOwzeNTza0r4jFhFb-1" value="- released: bool" style="text;html=1;align=center;verticalAlign=middle;resizable=0;points=[];autosize=1;strokeColor=none;fillColor=none;" parent="PrW0b_lZdQNC7OUzNC1I-1" vertex="1">
          <mxGeometry y="133" width="100" height="20" as="geometry" />
        </mxCell>
        <mxCell id="x7zoOwzeNTza0r4jFhFb-3" value="- spotifyAvailable: bool" style="text;html=1;align=center;verticalAlign=middle;resizable=0;points=[];autosize=1;strokeColor=none;fillColor=none;" parent="PrW0b_lZdQNC7OUzNC1I-1" vertex="1">
          <mxGeometry y="153" width="140" height="20" as="geometry" />
        </mxCell>
        <mxCell id="x7zoOwzeNTza0r4jFhFb-14" value="- appleMusicAvailable: bool" style="text;html=1;align=center;verticalAlign=middle;resizable=0;points=[];autosize=1;strokeColor=none;fillColor=none;" parent="PrW0b_lZdQNC7OUzNC1I-1" vertex="1">
          <mxGeometry y="173" width="160" height="20" as="geometry" />
        </mxCell>
        <mxCell id="oI6Q_fqBbMfx-ASYpsbW-1" value="- genre: string" style="text;html=1;align=center;verticalAlign=middle;resizable=0;points=[];autosize=1;strokeColor=none;fillColor=none;" vertex="1" parent="PrW0b_lZdQNC7OUzNC1I-1">
          <mxGeometry y="193" width="90" height="20" as="geometry" />
        </mxCell>
        <mxCell id="PrW0b_lZdQNC7OUzNC1I-20" style="edgeStyle=orthogonalEdgeStyle;rounded=0;orthogonalLoop=1;jettySize=auto;html=1;entryX=0.46;entryY=0;entryDx=0;entryDy=0;entryPerimeter=0;" parent="1" source="PrW0b_lZdQNC7OUzNC1I-9" target="PrW0b_lZdQNC7OUzNC1I-13" edge="1">
          <mxGeometry relative="1" as="geometry" />
        </mxCell>
        <mxCell id="PrW0b_lZdQNC7OUzNC1I-9" value="Song" style="swimlane;" parent="1" vertex="1">
          <mxGeometry x="550" y="140" width="200" height="200" as="geometry" />
        </mxCell>
        <mxCell id="PrW0b_lZdQNC7OUzNC1I-10" value="- name: string" style="text;html=1;align=center;verticalAlign=middle;resizable=0;points=[];autosize=1;strokeColor=none;fillColor=none;" parent="PrW0b_lZdQNC7OUzNC1I-9" vertex="1">
          <mxGeometry y="30" width="90" height="20" as="geometry" />
        </mxCell>
        <mxCell id="PrW0b_lZdQNC7OUzNC1I-11" value="- duration: int" style="text;html=1;align=center;verticalAlign=middle;resizable=0;points=[];autosize=1;strokeColor=none;fillColor=none;" parent="PrW0b_lZdQNC7OUzNC1I-9" vertex="1">
          <mxGeometry y="50" width="90" height="20" as="geometry" />
        </mxCell>
        <mxCell id="uJzvbrtq1FeZPgEqLkso-3" value="- lyrics: text" style="text;html=1;align=center;verticalAlign=middle;resizable=0;points=[];autosize=1;strokeColor=none;fillColor=none;" parent="PrW0b_lZdQNC7OUzNC1I-9" vertex="1">
          <mxGeometry y="70" width="80" height="20" as="geometry" />
        </mxCell>
        <mxCell id="x7zoOwzeNTza0r4jFhFb-2" value="- explicitContent: bool" style="text;html=1;align=center;verticalAlign=middle;resizable=0;points=[];autosize=1;strokeColor=none;fillColor=none;" parent="PrW0b_lZdQNC7OUzNC1I-9" vertex="1">
          <mxGeometry y="90" width="130" height="20" as="geometry" />
        </mxCell>
        <mxCell id="PrW0b_lZdQNC7OUzNC1I-13" value="Interpret" style="swimlane;" parent="1" vertex="1">
          <mxGeometry x="360" y="440" width="200" height="200" as="geometry" />
        </mxCell>
        <mxCell id="PrW0b_lZdQNC7OUzNC1I-14" value="- name: string" style="text;html=1;align=center;verticalAlign=middle;resizable=0;points=[];autosize=1;strokeColor=none;fillColor=none;" parent="PrW0b_lZdQNC7OUzNC1I-13" vertex="1">
          <mxGeometry y="35" width="90" height="20" as="geometry" />
        </mxCell>
        <mxCell id="PrW0b_lZdQNC7OUzNC1I-15" value="- nationality: string" style="text;html=1;align=center;verticalAlign=middle;resizable=0;points=[];autosize=1;strokeColor=none;fillColor=none;" parent="PrW0b_lZdQNC7OUzNC1I-13" vertex="1">
          <mxGeometry y="57" width="110" height="20" as="geometry" />
        </mxCell>
        <mxCell id="PrW0b_lZdQNC7OUzNC1I-17" value="- biography: RTE" style="text;html=1;align=center;verticalAlign=middle;resizable=0;points=[];autosize=1;strokeColor=none;fillColor=none;" parent="PrW0b_lZdQNC7OUzNC1I-13" vertex="1">
          <mxGeometry y="81" width="110" height="20" as="geometry" />
        </mxCell>
        <mxCell id="HRtRwaKuzuj-G4ap-EYi-1" value="- gallery: media" style="text;html=1;align=center;verticalAlign=middle;resizable=0;points=[];autosize=1;strokeColor=none;fillColor=none;" parent="PrW0b_lZdQNC7OUzNC1I-13" vertex="1">
          <mxGeometry y="101" width="100" height="20" as="geometry" />
        </mxCell>
        <mxCell id="x7zoOwzeNTza0r4jFhFb-10" value="- birthdate : date" style="text;html=1;align=center;verticalAlign=middle;resizable=0;points=[];autosize=1;strokeColor=none;fillColor=none;" parent="PrW0b_lZdQNC7OUzNC1I-13" vertex="1">
          <mxGeometry y="125" width="100" height="20" as="geometry" />
        </mxCell>
        <mxCell id="x7zoOwzeNTza0r4jFhFb-15" value="Song- duration: int = seconds" style="text;html=1;align=center;verticalAlign=middle;resizable=0;points=[];autosize=1;strokeColor=none;fillColor=none;" parent="1" vertex="1">
          <mxGeometry x="105" y="840" width="170" height="20" as="geometry" />
        </mxCell>
        <mxCell id="oI6Q_fqBbMfx-ASYpsbW-8" style="edgeStyle=orthogonalEdgeStyle;rounded=0;orthogonalLoop=1;jettySize=auto;html=1;entryX=0.5;entryY=1;entryDx=0;entryDy=0;" edge="1" parent="1" source="oI6Q_fqBbMfx-ASYpsbW-2" target="PrW0b_lZdQNC7OUzNC1I-1">
          <mxGeometry relative="1" as="geometry" />
        </mxCell>
        <mxCell id="oI6Q_fqBbMfx-ASYpsbW-2" value="Rating" style="swimlane;" vertex="1" parent="1">
          <mxGeometry x="50" y="430" width="200" height="200" as="geometry" />
        </mxCell>
        <mxCell id="oI6Q_fqBbMfx-ASYpsbW-3" value="-name: string" style="text;html=1;align=center;verticalAlign=middle;resizable=0;points=[];autosize=1;strokeColor=none;fillColor=none;" vertex="1" parent="oI6Q_fqBbMfx-ASYpsbW-2">
          <mxGeometry y="30" width="90" height="20" as="geometry" />
        </mxCell>
        <mxCell id="oI6Q_fqBbMfx-ASYpsbW-4" value="- description: text" style="text;html=1;align=center;verticalAlign=middle;resizable=0;points=[];autosize=1;strokeColor=none;fillColor=none;" vertex="1" parent="oI6Q_fqBbMfx-ASYpsbW-2">
          <mxGeometry y="50" width="110" height="20" as="geometry" />
        </mxCell>
        <mxCell id="oI6Q_fqBbMfx-ASYpsbW-5" value="- stars: int" style="text;html=1;align=center;verticalAlign=middle;resizable=0;points=[];autosize=1;strokeColor=none;fillColor=none;" vertex="1" parent="oI6Q_fqBbMfx-ASYpsbW-2">
          <mxGeometry y="70" width="70" height="20" as="geometry" />
        </mxCell>
        <mxCell id="oI6Q_fqBbMfx-ASYpsbW-7" value="- date: date" style="text;html=1;align=center;verticalAlign=middle;resizable=0;points=[];autosize=1;strokeColor=none;fillColor=none;" vertex="1" parent="oI6Q_fqBbMfx-ASYpsbW-2">
          <mxGeometry y="90" width="80" height="20" as="geometry" />
        </mxCell>
        <mxCell id="tK6EGF53Pml0CGaGYps6-1" value="- author: string" style="text;html=1;align=center;verticalAlign=middle;resizable=0;points=[];autosize=1;strokeColor=none;fillColor=none;" vertex="1" parent="oI6Q_fqBbMfx-ASYpsbW-2">
          <mxGeometry y="110" width="90" height="20" as="geometry" />
        </mxCell>
        <mxCell id="oI6Q_fqBbMfx-ASYpsbW-6" value="stars: 1-5 stars, 1,5 Sterne = 1.5 als int" style="text;html=1;align=center;verticalAlign=middle;resizable=0;points=[];autosize=1;strokeColor=none;fillColor=none;" vertex="1" parent="1">
          <mxGeometry x="110" y="860" width="220" height="20" as="geometry" />
        </mxCell>
      </root>
    </mxGraphModel>
  </diagram>
  <diagram id="wYvYcVwo7TwQr_Gd8OK4" name="Views">
    <mxGraphModel dx="1207" dy="1142" grid="1" gridSize="10" guides="1" tooltips="1" connect="1" arrows="1" fold="1" page="1" pageScale="1" pageWidth="827" pageHeight="1169" math="0" shadow="0">
      <root>
        <mxCell id="5HoKZ9bP3cqV0RjZwThM-0" />
        <mxCell id="5HoKZ9bP3cqV0RjZwThM-1" parent="5HoKZ9bP3cqV0RjZwThM-0" />
        <mxCell id="5HoKZ9bP3cqV0RjZwThM-8" style="rounded=0;orthogonalLoop=1;jettySize=auto;html=1;entryX=0.5;entryY=0;entryDx=0;entryDy=0;" parent="5HoKZ9bP3cqV0RjZwThM-1" source="5HoKZ9bP3cqV0RjZwThM-2" target="5HoKZ9bP3cqV0RjZwThM-4" edge="1">
          <mxGeometry relative="1" as="geometry" />
        </mxCell>
        <mxCell id="5HoKZ9bP3cqV0RjZwThM-2" value="Liste &lt;br&gt;Albums" style="shape=document;whiteSpace=wrap;html=1;boundedLbl=1;" parent="5HoKZ9bP3cqV0RjZwThM-1" vertex="1">
          <mxGeometry x="110" y="170" width="120" height="80" as="geometry" />
        </mxCell>
        <mxCell id="Yk3yulgWQY6T_zvDAYb1-1" style="edgeStyle=orthogonalEdgeStyle;rounded=0;orthogonalLoop=1;jettySize=auto;html=1;entryX=1;entryY=0.5;entryDx=0;entryDy=0;" edge="1" parent="5HoKZ9bP3cqV0RjZwThM-1" source="5HoKZ9bP3cqV0RjZwThM-3" target="5HoKZ9bP3cqV0RjZwThM-4">
          <mxGeometry relative="1" as="geometry" />
        </mxCell>
        <mxCell id="5HoKZ9bP3cqV0RjZwThM-3" value="Landingpage Album für Künstler" style="shape=document;whiteSpace=wrap;html=1;boundedLbl=1;" parent="5HoKZ9bP3cqV0RjZwThM-1" vertex="1">
          <mxGeometry x="290" y="170" width="120" height="70" as="geometry" />
        </mxCell>
        <mxCell id="5HoKZ9bP3cqV0RjZwThM-4" value="Detailseite Album" style="shape=document;whiteSpace=wrap;html=1;boundedLbl=1;" parent="5HoKZ9bP3cqV0RjZwThM-1" vertex="1">
          <mxGeometry x="190" y="360" width="120" height="80" as="geometry" />
        </mxCell>
        <mxCell id="5HoKZ9bP3cqV0RjZwThM-5" value="Songs" style="shape=document;whiteSpace=wrap;html=1;boundedLbl=1;" parent="5HoKZ9bP3cqV0RjZwThM-1" vertex="1">
          <mxGeometry x="110" y="560" width="120" height="80" as="geometry" />
        </mxCell>
        <mxCell id="5HoKZ9bP3cqV0RjZwThM-9" style="edgeStyle=none;rounded=0;orthogonalLoop=1;jettySize=auto;html=1;exitX=0.5;exitY=0;exitDx=0;exitDy=0;" parent="5HoKZ9bP3cqV0RjZwThM-1" source="5HoKZ9bP3cqV0RjZwThM-7" target="5HoKZ9bP3cqV0RjZwThM-4" edge="1">
          <mxGeometry relative="1" as="geometry" />
        </mxCell>
        <mxCell id="5HoKZ9bP3cqV0RjZwThM-10" style="edgeStyle=none;rounded=0;orthogonalLoop=1;jettySize=auto;html=1;exitX=0;exitY=0.5;exitDx=0;exitDy=0;entryX=1;entryY=0.5;entryDx=0;entryDy=0;" parent="5HoKZ9bP3cqV0RjZwThM-1" source="5HoKZ9bP3cqV0RjZwThM-7" target="5HoKZ9bP3cqV0RjZwThM-5" edge="1">
          <mxGeometry relative="1" as="geometry" />
        </mxCell>
        <mxCell id="5HoKZ9bP3cqV0RjZwThM-11" style="edgeStyle=none;rounded=0;orthogonalLoop=1;jettySize=auto;html=1;entryX=1.017;entryY=0.35;entryDx=0;entryDy=0;entryPerimeter=0;" parent="5HoKZ9bP3cqV0RjZwThM-1" source="5HoKZ9bP3cqV0RjZwThM-6" target="5HoKZ9bP3cqV0RjZwThM-7" edge="1">
          <mxGeometry relative="1" as="geometry" />
        </mxCell>
        <mxCell id="5HoKZ9bP3cqV0RjZwThM-6" value="Liste &lt;br&gt;Intepreten" style="shape=document;whiteSpace=wrap;html=1;boundedLbl=1;" parent="5HoKZ9bP3cqV0RjZwThM-1" vertex="1">
          <mxGeometry x="540" y="550" width="120" height="80" as="geometry" />
        </mxCell>
        <mxCell id="5HoKZ9bP3cqV0RjZwThM-7" value="Detail Interpreter" style="shape=document;whiteSpace=wrap;html=1;boundedLbl=1;" parent="5HoKZ9bP3cqV0RjZwThM-1" vertex="1">
          <mxGeometry x="340" y="560" width="120" height="80" as="geometry" />
        </mxCell>
        <mxCell id="k25EAd_-FAYIrIH_C_M4-0" value="Top Charts?" style="text;html=1;align=center;verticalAlign=middle;resizable=0;points=[];autosize=1;strokeColor=none;fillColor=none;" parent="5HoKZ9bP3cqV0RjZwThM-1" vertex="1">
          <mxGeometry x="220" y="820" width="80" height="20" as="geometry" />
        </mxCell>
        <mxCell id="Yk3yulgWQY6T_zvDAYb1-2" style="edgeStyle=orthogonalEdgeStyle;rounded=0;orthogonalLoop=1;jettySize=auto;html=1;entryX=1.017;entryY=0.638;entryDx=0;entryDy=0;entryPerimeter=0;" edge="1" parent="5HoKZ9bP3cqV0RjZwThM-1" source="Yk3yulgWQY6T_zvDAYb1-0" target="5HoKZ9bP3cqV0RjZwThM-4">
          <mxGeometry relative="1" as="geometry">
            <Array as="points">
              <mxPoint x="510" y="411" />
            </Array>
          </mxGeometry>
        </mxCell>
        <mxCell id="Yk3yulgWQY6T_zvDAYb1-0" value="Landingpage für Funk Alben" style="shape=document;whiteSpace=wrap;html=1;boundedLbl=1;" vertex="1" parent="5HoKZ9bP3cqV0RjZwThM-1">
          <mxGeometry x="450" y="170" width="120" height="80" as="geometry" />
        </mxCell>
      </root>
    </mxGraphModel>
  </diagram>
  <diagram id="RxTgSAQtPZRyhOvXZ2T-" name="Liste Album">
    <mxGraphModel dx="1420" dy="1344" grid="1" gridSize="10" guides="1" tooltips="1" connect="1" arrows="1" fold="1" page="1" pageScale="1" pageWidth="827" pageHeight="1169" math="0" shadow="0">
      <root>
        <mxCell id="XYZBfUIqV31KoNoUFfLz-0" />
        <mxCell id="XYZBfUIqV31KoNoUFfLz-1" parent="XYZBfUIqV31KoNoUFfLz-0" />
        <mxCell id="CCV61Xyog9YNiKcd7rqx-2" value="" style="rounded=0;whiteSpace=wrap;html=1;fontColor=#FFFFFF;labelBorderColor=#FFFFFF;labelBackgroundColor=#FFFFFF;" parent="XYZBfUIqV31KoNoUFfLz-1" vertex="1">
          <mxGeometry x="40" y="40" width="870" height="1200" as="geometry" />
        </mxCell>
        <mxCell id="L-bamg3uNITYWP0qs0I_-0" value="" style="html=1;shadow=0;dashed=0;shape=mxgraph.bootstrap.rrect;rSize=5;strokeColor=none;html=1;whiteSpace=wrap;fillColor=#6C767D;fontColor=#ffffff;sketch=0;labelBackgroundColor=#FFAA00;labelBorderColor=none;fontSize=23;" parent="XYZBfUIqV31KoNoUFfLz-1" vertex="1">
          <mxGeometry x="365" y="60" width="220" height="30" as="geometry" />
        </mxCell>
        <mxCell id="L-bamg3uNITYWP0qs0I_-1" value="&lt;font style=&quot;font-size: 16px;&quot;&gt;Alben&lt;/font&gt;" style="strokeColor=inherit;fillColor=inherit;gradientColor=inherit;fontColor=#FFFFFF;html=1;shadow=0;dashed=0;shape=mxgraph.bootstrap.leftButton;rSize=5;perimeter=none;whiteSpace=wrap;resizeHeight=1;sketch=0;fontSize=16;" parent="L-bamg3uNITYWP0qs0I_-0" vertex="1">
          <mxGeometry width="70" height="30" relative="1" as="geometry" />
        </mxCell>
        <mxCell id="L-bamg3uNITYWP0qs0I_-2" value="&lt;font color=&quot;#ffffff&quot; style=&quot;font-size: 16px;&quot;&gt;Songs&lt;/font&gt;" style="strokeColor=#666666;fillColor=#BABABA;fontColor=#333333;html=1;shadow=0;dashed=0;perimeter=none;whiteSpace=wrap;resizeHeight=1;sketch=0;fontSize=16;" parent="L-bamg3uNITYWP0qs0I_-0" vertex="1">
          <mxGeometry width="70" height="30" relative="1" as="geometry">
            <mxPoint x="60" as="offset" />
          </mxGeometry>
        </mxCell>
        <mxCell id="L-bamg3uNITYWP0qs0I_-3" value="&lt;font color=&quot;#ffffff&quot; style=&quot;font-size: 16px;&quot;&gt;Interpreten&lt;/font&gt;" style="strokeColor=#666666;fillColor=#BABABA;fontColor=#333333;html=1;shadow=0;dashed=0;shape=mxgraph.bootstrap.rightButton;rSize=5;perimeter=none;whiteSpace=wrap;resizeHeight=1;sketch=0;fontSize=16;" parent="L-bamg3uNITYWP0qs0I_-0" vertex="1">
          <mxGeometry x="1" width="89" height="30" relative="1" as="geometry">
            <mxPoint x="-89" as="offset" />
          </mxGeometry>
        </mxCell>
        <mxCell id="Co9m7869xmPnloD-0B9n-0" value="explicit" style="html=1;shadow=0;dashed=0;shape=mxgraph.bootstrap.rrect;rSize=5;strokeColor=#6C767D;strokeWidth=1;fillColor=none;fontColor=#6C767D;whiteSpace=wrap;align=center;verticalAlign=middle;spacingLeft=0;fontStyle=0;fontSize=16;spacing=5;labelBackgroundColor=default;labelBorderColor=none;" parent="XYZBfUIqV31KoNoUFfLz-1" vertex="1">
          <mxGeometry x="440" y="130" width="90" height="22" as="geometry" />
        </mxCell>
        <mxCell id="Co9m7869xmPnloD-0B9n-1" value="" style="shape=rect;fillColor=#F6F6F6;strokeColor=none;labelBackgroundColor=default;labelBorderColor=none;fontSize=13;fontColor=default;" parent="XYZBfUIqV31KoNoUFfLz-1" vertex="1">
          <mxGeometry x="60" y="130" width="360" height="30" as="geometry" />
        </mxCell>
        <mxCell id="Co9m7869xmPnloD-0B9n-2" value="" style="html=1;strokeWidth=1;shadow=0;dashed=0;shape=mxgraph.ios7ui.marginRect;rx=3;ry=3;rectMargin=5;fillColor=#E4E4E4;strokeColor=none;labelBackgroundColor=default;labelBorderColor=none;fontSize=13;fontColor=default;" parent="Co9m7869xmPnloD-0B9n-1" vertex="1">
          <mxGeometry width="359.99999999999994" height="30" as="geometry" />
        </mxCell>
        <mxCell id="Co9m7869xmPnloD-0B9n-3" value="Search" style="shape=mxgraph.ios7.icons.looking_glass;strokeColor=#878789;fillColor=none;fontColor=#878789;labelPosition=right;verticalLabelPosition=middle;align=left;verticalAlign=middle;fontSize=6;fontStyle=0;spacingTop=2;sketch=0;labelBackgroundColor=default;labelBorderColor=none;" parent="Co9m7869xmPnloD-0B9n-1" vertex="1">
          <mxGeometry x="0.5" y="0.5" width="6" height="6" relative="1" as="geometry">
            <mxPoint x="-17" y="-3" as="offset" />
          </mxGeometry>
        </mxCell>
        <mxCell id="Co9m7869xmPnloD-0B9n-12" value="Spotify" style="html=1;shadow=0;dashed=0;shape=mxgraph.bootstrap.rrect;rSize=5;strokeColor=#6C767D;strokeWidth=1;fillColor=none;fontColor=#6C767D;whiteSpace=wrap;align=center;verticalAlign=middle;spacingLeft=0;fontStyle=0;fontSize=16;spacing=5;labelBackgroundColor=default;labelBorderColor=none;" parent="XYZBfUIqV31KoNoUFfLz-1" vertex="1">
          <mxGeometry x="540" y="130" width="90" height="22" as="geometry" />
        </mxCell>
        <mxCell id="Co9m7869xmPnloD-0B9n-13" value="Apple Music" style="html=1;shadow=0;dashed=0;shape=mxgraph.bootstrap.rrect;rSize=5;strokeColor=#6C767D;strokeWidth=1;fillColor=none;fontColor=#6C767D;whiteSpace=wrap;align=center;verticalAlign=middle;spacingLeft=0;fontStyle=0;fontSize=16;spacing=5;labelBackgroundColor=default;labelBorderColor=none;" parent="XYZBfUIqV31KoNoUFfLz-1" vertex="1">
          <mxGeometry x="640" y="130" width="120" height="22" as="geometry" />
        </mxCell>
        <mxCell id="lYz8FhX2EJper5NEBva4-56" value="" style="html=1;shadow=0;dashed=0;shape=mxgraph.bootstrap.rrect;rSize=5;strokeColor=#DEE2E6;html=1;whiteSpace=wrap;fillColor=#ffffff;fontColor=#0085FC;labelBackgroundColor=none;labelBorderColor=none;fontSize=16;" parent="XYZBfUIqV31KoNoUFfLz-1" vertex="1">
          <mxGeometry x="395" y="1160" width="150" height="30" as="geometry" />
        </mxCell>
        <mxCell id="lYz8FhX2EJper5NEBva4-57" value="&lt;&lt;" style="strokeColor=inherit;fillColor=inherit;gradientColor=inherit;fontColor=inherit;html=1;shadow=0;dashed=0;shape=mxgraph.bootstrap.leftButton;rSize=5;perimeter=none;whiteSpace=wrap;resizeHeight=1;fontSize=14;labelBackgroundColor=none;labelBorderColor=none;" parent="lYz8FhX2EJper5NEBva4-56" vertex="1">
          <mxGeometry width="30" height="30" relative="1" as="geometry" />
        </mxCell>
        <mxCell id="lYz8FhX2EJper5NEBva4-58" value="1" style="strokeColor=inherit;fillColor=inherit;gradientColor=inherit;fontColor=inherit;html=1;shadow=0;dashed=0;perimeter=none;whiteSpace=wrap;resizeHeight=1;fontSize=14;labelBackgroundColor=none;labelBorderColor=none;" parent="lYz8FhX2EJper5NEBva4-56" vertex="1">
          <mxGeometry width="30" height="30" relative="1" as="geometry">
            <mxPoint x="30" as="offset" />
          </mxGeometry>
        </mxCell>
        <mxCell id="lYz8FhX2EJper5NEBva4-59" value="2" style="strokeColor=inherit;fillColor=inherit;gradientColor=inherit;fontColor=inherit;html=1;shadow=0;dashed=0;perimeter=none;whiteSpace=wrap;resizeHeight=1;fontSize=14;labelBackgroundColor=none;labelBorderColor=none;" parent="lYz8FhX2EJper5NEBva4-56" vertex="1">
          <mxGeometry width="30" height="30" relative="1" as="geometry">
            <mxPoint x="60" as="offset" />
          </mxGeometry>
        </mxCell>
        <mxCell id="lYz8FhX2EJper5NEBva4-60" value="3" style="strokeColor=inherit;fillColor=inherit;gradientColor=inherit;fontColor=inherit;html=1;shadow=0;dashed=0;perimeter=none;whiteSpace=wrap;resizeHeight=1;fontSize=14;labelBackgroundColor=none;labelBorderColor=none;" parent="lYz8FhX2EJper5NEBva4-56" vertex="1">
          <mxGeometry width="30" height="30" relative="1" as="geometry">
            <mxPoint x="90" as="offset" />
          </mxGeometry>
        </mxCell>
        <mxCell id="lYz8FhX2EJper5NEBva4-61" value="&gt;&gt;" style="strokeColor=inherit;fillColor=inherit;gradientColor=inherit;fontColor=inherit;html=1;shadow=0;dashed=0;shape=mxgraph.bootstrap.rightButton;rSize=5;perimeter=none;whiteSpace=wrap;resizeHeight=1;fontSize=14;labelBackgroundColor=none;labelBorderColor=none;" parent="lYz8FhX2EJper5NEBva4-56" vertex="1">
          <mxGeometry x="1" width="30" height="30" relative="1" as="geometry">
            <mxPoint x="-30" as="offset" />
          </mxGeometry>
        </mxCell>
        <mxCell id="bOwbzEF5qDyFTc2AQZv3-0" value="veröffentlicht" style="html=1;shadow=0;dashed=0;shape=mxgraph.bootstrap.rrect;rSize=5;strokeColor=#6C767D;strokeWidth=1;fillColor=none;fontColor=#6C767D;whiteSpace=wrap;align=center;verticalAlign=middle;spacingLeft=0;fontStyle=0;fontSize=16;spacing=5;labelBackgroundColor=default;labelBorderColor=none;" parent="XYZBfUIqV31KoNoUFfLz-1" vertex="1">
          <mxGeometry x="770" y="130" width="110" height="22" as="geometry" />
        </mxCell>
        <mxCell id="l1yf5DWK2-m8T0T3oyTu-0" value="&lt;b&gt;&lt;font style=&quot;font-size: 20px&quot;&gt;Bigger Love&lt;br&gt;&lt;/font&gt;&lt;/b&gt;&lt;font color=&quot;#868e96&quot;&gt;4 Bewertungen&lt;/font&gt;&lt;br&gt;&lt;br&gt;&lt;em style=&quot;box-sizing: border-box ; margin: 0px ; padding: 0px ; border: 0px ; color: rgb(34 , 34 , 34) ; font-family: &amp;#34;programme&amp;#34; , &amp;#34;arial&amp;#34; , sans-serif ; font-size: 16px&quot;&gt;Bigger Love&lt;/em&gt;&lt;span style=&quot;color: rgb(34 , 34 , 34) ; font-family: &amp;#34;programme&amp;#34; , &amp;#34;arial&amp;#34; , sans-serif ; font-size: 16px&quot;&gt;&amp;nbsp;is the seventh studio album from John Legend, released on June 19, 2020.&lt;/span&gt;&lt;br&gt;&lt;span style=&quot;color: rgba(0 , 0 , 0 , 0) ; font-family: monospace ; font-size: 0px ; background-color: rgb(248 , 249 , 250)&quot;&gt;%3CmxGraphModel%3E%3Croot%3E%3CmxCell%20id%3D%220%22%2F%3E%3CmxCell%20id%3D%221%22%20parent%3D%220%22%2F%3E%3CmxCell%20id%3D%222%22%20value%3D%22Spotify%22%20style%3D%22html%3D1%3Bshadow%3D0%3Bdashed%3D0%3Bshape%3Dmxgraph.bootstrap.rrect%3BrSize%3D5%3BstrokeColor%3D%236C767D%3BstrokeWidth%3D1%3BfillColor%3Dnone%3BfontColor%3D%236C767D%3BwhiteSpace%3Dwrap%3Balign%3Dcenter%3BverticalAlign%3Dmiddle%3BspacingLeft%3D0%3BfontStyle%3D0%3BfontSize%3D13%3Bspacing%3D5%3BlabelBackgroundColor%3Ddefault%3BlabelBorderColor%3Dnone%3B%22%20vertex%3D%221%22%20parent%3D%221%22%3E%3CmxGeometry%20x%3D%22430%22%20y%3D%22240%22%20width%3D%2250%22%20height%3D%2220%22%20as%3D%22geometry%22%2F%3E%3C%2FmxCell%3E%3C%2Froot%3E%3C%2FmxGraphModel%3E&lt;/span&gt;" style="html=1;shadow=0;dashed=0;shape=mxgraph.bootstrap.rrect;rSize=5;strokeColor=#DFDFDF;html=1;whiteSpace=wrap;fillColor=#ffffff;fontColor=#000000;verticalAlign=top;align=left;spacing=20;spacingBottom=0;fontSize=14;spacingTop=160;labelBackgroundColor=#FFFFFF;labelBorderColor=#FFFFFF;" vertex="1" parent="XYZBfUIqV31KoNoUFfLz-1">
          <mxGeometry x="60" y="207" width="260" height="440" as="geometry" />
        </mxCell>
        <mxCell id="l1yf5DWK2-m8T0T3oyTu-1" value="Image cap" style="html=1;shadow=0;dashed=0;shape=mxgraph.bootstrap.topButton;rSize=5;perimeter=none;whiteSpace=wrap;fillColor=#868E96;strokeColor=#DFDFDF;fontColor=none;resizeWidth=1;fontSize=18;labelBackgroundColor=#FFFFFF;labelBorderColor=#FFFFFF;noLabel=1;" vertex="1" parent="l1yf5DWK2-m8T0T3oyTu-0">
          <mxGeometry width="260" height="160" relative="1" as="geometry" />
        </mxCell>
        <mxCell id="l1yf5DWK2-m8T0T3oyTu-2" value="&lt;span style=&quot;white-space: pre&quot;&gt; &lt;/span&gt;John Legend" style="html=1;shadow=0;dashed=0;shape=mxgraph.bootstrap.bottomButton;rSize=5;perimeter=none;whiteSpace=wrap;fillColor=#F7F7F7;strokeColor=#DFDFDF;fontColor=#000000;resizeWidth=1;fontSize=13;align=left;spacing=20;labelBackgroundColor=none;labelBorderColor=none;" vertex="1" parent="l1yf5DWK2-m8T0T3oyTu-0">
          <mxGeometry y="1" width="260" height="50" relative="1" as="geometry">
            <mxPoint y="-50" as="offset" />
          </mxGeometry>
        </mxCell>
        <mxCell id="l1yf5DWK2-m8T0T3oyTu-3" value="" style="shape=image;html=1;verticalAlign=top;verticalLabelPosition=bottom;labelBackgroundColor=#ffffff;imageAspect=0;aspect=fixed;image=https://cdn0.iconfinder.com/data/icons/eon-social-media-contact-info-2/32/user_people_person_users_man-128.png;labelBorderColor=none;fontSize=13;fontColor=#000000;fillColor=#BABABA;" vertex="1" parent="l1yf5DWK2-m8T0T3oyTu-0">
          <mxGeometry x="10" y="397.07317073170736" width="30" height="30" as="geometry" />
        </mxCell>
        <mxCell id="l1yf5DWK2-m8T0T3oyTu-4" value="" style="shape=image;html=1;verticalAlign=top;verticalLabelPosition=bottom;labelBackgroundColor=#ffffff;imageAspect=0;aspect=fixed;image=https://cdn4.iconfinder.com/data/icons/ionicons/512/icon-ios7-musical-note-128.png;labelBorderColor=none;fontSize=13;fontColor=#000000;fillColor=#BABABA;" vertex="1" parent="l1yf5DWK2-m8T0T3oyTu-0">
          <mxGeometry x="20" y="342.3414634146342" width="30" height="30" as="geometry" />
        </mxCell>
        <mxCell id="l1yf5DWK2-m8T0T3oyTu-5" value="Pop" style="text;html=1;strokeColor=none;fillColor=none;align=center;verticalAlign=middle;whiteSpace=wrap;rounded=0;labelBackgroundColor=none;labelBorderColor=none;fontSize=13;fontColor=#000000;" vertex="1" parent="l1yf5DWK2-m8T0T3oyTu-0">
          <mxGeometry x="50" y="342.3414634146342" width="40" height="32.19512195121952" as="geometry" />
        </mxCell>
        <mxCell id="l1yf5DWK2-m8T0T3oyTu-6" value="&lt;b&gt;&lt;font style=&quot;font-size: 20px&quot;&gt;Aretha Now&lt;br&gt;&lt;/font&gt;&lt;/b&gt;&lt;span style=&quot;color: rgb(134 , 142 , 150) ; background-color: rgb(255 , 255 , 255)&quot;&gt;# Bewertungen&lt;/span&gt;&lt;br&gt;&lt;br&gt;This card has supporting text below as a natural lead-in to additional content." style="html=1;shadow=0;dashed=0;shape=mxgraph.bootstrap.rrect;rSize=5;strokeColor=#DFDFDF;html=1;whiteSpace=wrap;fillColor=#ffffff;fontColor=default;verticalAlign=top;align=left;spacing=20;spacingBottom=0;fontSize=14;spacingTop=160;labelBackgroundColor=none;labelBorderColor=none;" vertex="1" parent="XYZBfUIqV31KoNoUFfLz-1">
          <mxGeometry x="340" y="207" width="260" height="443" as="geometry" />
        </mxCell>
        <mxCell id="l1yf5DWK2-m8T0T3oyTu-7" value="&lt;font&gt;Image cap&lt;/font&gt;" style="html=1;shadow=0;dashed=0;shape=mxgraph.bootstrap.topButton;rSize=5;perimeter=none;whiteSpace=wrap;fillColor=#868E96;strokeColor=#DFDFDF;fontColor=none;resizeWidth=1;fontSize=18;labelBackgroundColor=#FFFFFF;labelBorderColor=#FFFFFF;noLabel=1;" vertex="1" parent="l1yf5DWK2-m8T0T3oyTu-6">
          <mxGeometry width="260" height="160" relative="1" as="geometry" />
        </mxCell>
        <mxCell id="l1yf5DWK2-m8T0T3oyTu-8" value="&lt;span style=&quot;white-space: pre&quot;&gt; &lt;/span&gt;Aretha Franklin" style="html=1;shadow=0;dashed=0;shape=mxgraph.bootstrap.bottomButton;rSize=5;perimeter=none;whiteSpace=wrap;fillColor=#F7F7F7;strokeColor=#DFDFDF;fontColor=#000000;resizeWidth=1;fontSize=13;align=left;spacing=20;labelBackgroundColor=none;labelBorderColor=none;" vertex="1" parent="l1yf5DWK2-m8T0T3oyTu-6">
          <mxGeometry y="1" width="260" height="50" relative="1" as="geometry">
            <mxPoint y="-50" as="offset" />
          </mxGeometry>
        </mxCell>
        <mxCell id="l1yf5DWK2-m8T0T3oyTu-9" value="" style="shape=image;html=1;verticalAlign=top;verticalLabelPosition=bottom;labelBackgroundColor=#ffffff;imageAspect=0;aspect=fixed;image=https://cdn0.iconfinder.com/data/icons/eon-social-media-contact-info-2/32/user_people_person_users_man-128.png;labelBorderColor=none;fontSize=13;fontColor=#000000;fillColor=#BABABA;" vertex="1" parent="l1yf5DWK2-m8T0T3oyTu-6">
          <mxGeometry x="10" y="399.7804878048781" width="30" height="30" as="geometry" />
        </mxCell>
        <mxCell id="l1yf5DWK2-m8T0T3oyTu-10" value="" style="shape=image;html=1;verticalAlign=top;verticalLabelPosition=bottom;labelBackgroundColor=#ffffff;imageAspect=0;aspect=fixed;image=https://cdn4.iconfinder.com/data/icons/ionicons/512/icon-ios7-musical-note-128.png;labelBorderColor=none;fontSize=13;fontColor=#000000;fillColor=#BABABA;" vertex="1" parent="l1yf5DWK2-m8T0T3oyTu-6">
          <mxGeometry x="20" y="345.7560975609756" width="30" height="30" as="geometry" />
        </mxCell>
        <mxCell id="l1yf5DWK2-m8T0T3oyTu-11" value="Soul" style="text;html=1;strokeColor=none;fillColor=none;align=center;verticalAlign=middle;whiteSpace=wrap;rounded=0;labelBackgroundColor=none;labelBorderColor=none;fontSize=13;fontColor=#000000;" vertex="1" parent="l1yf5DWK2-m8T0T3oyTu-6">
          <mxGeometry x="50" y="345.7560975609756" width="40" height="32.41463414634146" as="geometry" />
        </mxCell>
        <mxCell id="l1yf5DWK2-m8T0T3oyTu-12" value="&lt;b&gt;&lt;font style=&quot;font-size: 20px&quot;&gt;Album Name&lt;br&gt;&lt;/font&gt;&lt;/b&gt;&lt;span style=&quot;color: rgb(134 , 142 , 150)&quot;&gt;# Bewertungen&lt;/span&gt;&lt;br&gt;&lt;br&gt;Album Teaser text infos. Description This is a wider card with supporting text below as a natural lead-in to additional content." style="html=1;shadow=0;dashed=0;shape=mxgraph.bootstrap.rrect;rSize=5;strokeColor=#DFDFDF;html=1;whiteSpace=wrap;fillColor=#ffffff;fontColor=#000000;verticalAlign=top;align=left;spacing=20;spacingBottom=0;fontSize=14;spacingTop=160;labelBackgroundColor=#FFFFFF;labelBorderColor=#FFFFFF;" vertex="1" parent="XYZBfUIqV31KoNoUFfLz-1">
          <mxGeometry x="620" y="207" width="260" height="443" as="geometry" />
        </mxCell>
        <mxCell id="l1yf5DWK2-m8T0T3oyTu-13" value="&lt;font&gt;Image cap&lt;/font&gt;" style="html=1;shadow=0;dashed=0;shape=mxgraph.bootstrap.topButton;rSize=5;perimeter=none;whiteSpace=wrap;fillColor=#868E96;strokeColor=#DFDFDF;fontColor=none;resizeWidth=1;fontSize=18;labelBackgroundColor=none;labelBorderColor=none;noLabel=1;" vertex="1" parent="l1yf5DWK2-m8T0T3oyTu-12">
          <mxGeometry width="260" height="160" relative="1" as="geometry" />
        </mxCell>
        <mxCell id="l1yf5DWK2-m8T0T3oyTu-14" value="&lt;span style=&quot;white-space: pre&quot;&gt; &lt;/span&gt;&amp;nbsp; Interpreter Name" style="html=1;shadow=0;dashed=0;shape=mxgraph.bootstrap.bottomButton;rSize=5;perimeter=none;whiteSpace=wrap;fillColor=#F7F7F7;strokeColor=#DFDFDF;fontColor=#000000;resizeWidth=1;fontSize=13;align=left;spacing=20;labelBackgroundColor=none;labelBorderColor=none;" vertex="1" parent="l1yf5DWK2-m8T0T3oyTu-12">
          <mxGeometry y="1" width="260" height="50" relative="1" as="geometry">
            <mxPoint y="-50" as="offset" />
          </mxGeometry>
        </mxCell>
        <mxCell id="l1yf5DWK2-m8T0T3oyTu-15" value="" style="shape=image;html=1;verticalAlign=top;verticalLabelPosition=bottom;labelBackgroundColor=#ffffff;imageAspect=0;aspect=fixed;image=https://cdn0.iconfinder.com/data/icons/eon-social-media-contact-info-2/32/user_people_person_users_man-128.png;labelBorderColor=none;fontSize=13;fontColor=#000000;fillColor=#BABABA;" vertex="1" parent="l1yf5DWK2-m8T0T3oyTu-12">
          <mxGeometry x="20" y="399.7804878048781" width="30" height="30" as="geometry" />
        </mxCell>
        <mxCell id="l1yf5DWK2-m8T0T3oyTu-16" value="" style="shape=image;html=1;verticalAlign=top;verticalLabelPosition=bottom;labelBackgroundColor=#ffffff;imageAspect=0;aspect=fixed;image=https://cdn4.iconfinder.com/data/icons/ionicons/512/icon-ios7-musical-note-128.png;labelBorderColor=none;fontSize=13;fontColor=#000000;fillColor=#BABABA;" vertex="1" parent="l1yf5DWK2-m8T0T3oyTu-12">
          <mxGeometry x="20" y="345.7560975609756" width="30" height="30" as="geometry" />
        </mxCell>
        <mxCell id="l1yf5DWK2-m8T0T3oyTu-17" value="Genres" style="text;html=1;strokeColor=none;fillColor=none;align=center;verticalAlign=middle;whiteSpace=wrap;rounded=0;labelBackgroundColor=none;labelBorderColor=none;fontSize=13;fontColor=#000000;" vertex="1" parent="l1yf5DWK2-m8T0T3oyTu-12">
          <mxGeometry x="50" y="345.7560975609756" width="40" height="32.41463414634146" as="geometry" />
        </mxCell>
        <mxCell id="l1yf5DWK2-m8T0T3oyTu-18" value="&lt;b&gt;&lt;font style=&quot;font-size: 20px&quot;&gt;Album Name&lt;br&gt;&lt;/font&gt;&lt;/b&gt;&lt;span style=&quot;color: rgb(134 , 142 , 150)&quot;&gt;# Bewertungen&lt;/span&gt;&lt;br&gt;&lt;br&gt;Album Teaser text infos. Description This is a wider card with supporting text below as a natural lead-in to additional content." style="html=1;shadow=0;dashed=0;shape=mxgraph.bootstrap.rrect;rSize=5;strokeColor=#DFDFDF;html=1;whiteSpace=wrap;fillColor=#ffffff;fontColor=#000000;verticalAlign=top;align=left;spacing=20;spacingBottom=0;fontSize=14;spacingTop=160;labelBackgroundColor=#FFFFFF;labelBorderColor=#FFFFFF;" vertex="1" parent="XYZBfUIqV31KoNoUFfLz-1">
          <mxGeometry x="60" y="680" width="260" height="443" as="geometry" />
        </mxCell>
        <mxCell id="l1yf5DWK2-m8T0T3oyTu-19" value="&lt;font&gt;Image cap&lt;/font&gt;" style="html=1;shadow=0;dashed=0;shape=mxgraph.bootstrap.topButton;rSize=5;perimeter=none;whiteSpace=wrap;fillColor=#868E96;strokeColor=#DFDFDF;fontColor=none;resizeWidth=1;fontSize=18;labelBackgroundColor=none;labelBorderColor=none;noLabel=1;" vertex="1" parent="l1yf5DWK2-m8T0T3oyTu-18">
          <mxGeometry width="260" height="160" relative="1" as="geometry" />
        </mxCell>
        <mxCell id="l1yf5DWK2-m8T0T3oyTu-20" value="&lt;span style=&quot;white-space: pre&quot;&gt; &lt;/span&gt;&amp;nbsp; Interpreter Name" style="html=1;shadow=0;dashed=0;shape=mxgraph.bootstrap.bottomButton;rSize=5;perimeter=none;whiteSpace=wrap;fillColor=#F7F7F7;strokeColor=#DFDFDF;fontColor=#000000;resizeWidth=1;fontSize=13;align=left;spacing=20;labelBackgroundColor=none;labelBorderColor=none;" vertex="1" parent="l1yf5DWK2-m8T0T3oyTu-18">
          <mxGeometry y="1" width="260" height="50" relative="1" as="geometry">
            <mxPoint y="-50" as="offset" />
          </mxGeometry>
        </mxCell>
        <mxCell id="l1yf5DWK2-m8T0T3oyTu-21" value="" style="shape=image;html=1;verticalAlign=top;verticalLabelPosition=bottom;labelBackgroundColor=#ffffff;imageAspect=0;aspect=fixed;image=https://cdn0.iconfinder.com/data/icons/eon-social-media-contact-info-2/32/user_people_person_users_man-128.png;labelBorderColor=none;fontSize=13;fontColor=#000000;fillColor=#BABABA;" vertex="1" parent="l1yf5DWK2-m8T0T3oyTu-18">
          <mxGeometry x="20" y="399.7804878048781" width="30" height="30" as="geometry" />
        </mxCell>
        <mxCell id="l1yf5DWK2-m8T0T3oyTu-22" value="" style="shape=image;html=1;verticalAlign=top;verticalLabelPosition=bottom;labelBackgroundColor=#ffffff;imageAspect=0;aspect=fixed;image=https://cdn4.iconfinder.com/data/icons/ionicons/512/icon-ios7-musical-note-128.png;labelBorderColor=none;fontSize=13;fontColor=#000000;fillColor=#BABABA;" vertex="1" parent="l1yf5DWK2-m8T0T3oyTu-18">
          <mxGeometry x="20" y="345.7560975609756" width="30" height="30" as="geometry" />
        </mxCell>
        <mxCell id="l1yf5DWK2-m8T0T3oyTu-23" value="Genres" style="text;html=1;strokeColor=none;fillColor=none;align=center;verticalAlign=middle;whiteSpace=wrap;rounded=0;labelBackgroundColor=none;labelBorderColor=none;fontSize=13;fontColor=#000000;" vertex="1" parent="l1yf5DWK2-m8T0T3oyTu-18">
          <mxGeometry x="50" y="345.7560975609756" width="40" height="32.41463414634146" as="geometry" />
        </mxCell>
        <mxCell id="l1yf5DWK2-m8T0T3oyTu-24" value="&lt;b&gt;&lt;font style=&quot;font-size: 20px&quot;&gt;Album Name&lt;br&gt;&lt;/font&gt;&lt;/b&gt;&lt;span style=&quot;color: rgb(134 , 142 , 150)&quot;&gt;# Bewertungen&lt;/span&gt;&lt;br&gt;&lt;br&gt;Album Teaser text infos. Description This is a wider card with supporting text below as a natural lead-in to additional content." style="html=1;shadow=0;dashed=0;shape=mxgraph.bootstrap.rrect;rSize=5;strokeColor=#DFDFDF;html=1;whiteSpace=wrap;fillColor=#ffffff;fontColor=#000000;verticalAlign=top;align=left;spacing=20;spacingBottom=0;fontSize=14;spacingTop=160;labelBackgroundColor=#FFFFFF;labelBorderColor=#FFFFFF;" vertex="1" parent="XYZBfUIqV31KoNoUFfLz-1">
          <mxGeometry x="340" y="680" width="260" height="443" as="geometry" />
        </mxCell>
        <mxCell id="l1yf5DWK2-m8T0T3oyTu-25" value="&lt;font&gt;Image cap&lt;/font&gt;" style="html=1;shadow=0;dashed=0;shape=mxgraph.bootstrap.topButton;rSize=5;perimeter=none;whiteSpace=wrap;fillColor=#868E96;strokeColor=#DFDFDF;fontColor=none;resizeWidth=1;fontSize=18;labelBackgroundColor=none;labelBorderColor=none;noLabel=1;" vertex="1" parent="l1yf5DWK2-m8T0T3oyTu-24">
          <mxGeometry width="260" height="160" relative="1" as="geometry" />
        </mxCell>
        <mxCell id="l1yf5DWK2-m8T0T3oyTu-26" value="&lt;span style=&quot;white-space: pre&quot;&gt; &lt;/span&gt;&amp;nbsp; Interpreter Name" style="html=1;shadow=0;dashed=0;shape=mxgraph.bootstrap.bottomButton;rSize=5;perimeter=none;whiteSpace=wrap;fillColor=#F7F7F7;strokeColor=#DFDFDF;fontColor=#000000;resizeWidth=1;fontSize=13;align=left;spacing=20;labelBackgroundColor=none;labelBorderColor=none;" vertex="1" parent="l1yf5DWK2-m8T0T3oyTu-24">
          <mxGeometry y="1" width="260" height="50" relative="1" as="geometry">
            <mxPoint y="-50" as="offset" />
          </mxGeometry>
        </mxCell>
        <mxCell id="l1yf5DWK2-m8T0T3oyTu-27" value="" style="shape=image;html=1;verticalAlign=top;verticalLabelPosition=bottom;labelBackgroundColor=#ffffff;imageAspect=0;aspect=fixed;image=https://cdn0.iconfinder.com/data/icons/eon-social-media-contact-info-2/32/user_people_person_users_man-128.png;labelBorderColor=none;fontSize=13;fontColor=#000000;fillColor=#BABABA;" vertex="1" parent="l1yf5DWK2-m8T0T3oyTu-24">
          <mxGeometry x="20" y="399.7804878048781" width="30" height="30" as="geometry" />
        </mxCell>
        <mxCell id="l1yf5DWK2-m8T0T3oyTu-28" value="" style="shape=image;html=1;verticalAlign=top;verticalLabelPosition=bottom;labelBackgroundColor=#ffffff;imageAspect=0;aspect=fixed;image=https://cdn4.iconfinder.com/data/icons/ionicons/512/icon-ios7-musical-note-128.png;labelBorderColor=none;fontSize=13;fontColor=#000000;fillColor=#BABABA;" vertex="1" parent="l1yf5DWK2-m8T0T3oyTu-24">
          <mxGeometry x="20" y="345.7560975609756" width="30" height="30" as="geometry" />
        </mxCell>
        <mxCell id="l1yf5DWK2-m8T0T3oyTu-29" value="Genres" style="text;html=1;strokeColor=none;fillColor=none;align=center;verticalAlign=middle;whiteSpace=wrap;rounded=0;labelBackgroundColor=none;labelBorderColor=none;fontSize=13;fontColor=#000000;" vertex="1" parent="l1yf5DWK2-m8T0T3oyTu-24">
          <mxGeometry x="50" y="345.7560975609756" width="40" height="32.41463414634146" as="geometry" />
        </mxCell>
        <mxCell id="l1yf5DWK2-m8T0T3oyTu-30" value="&lt;b&gt;&lt;font style=&quot;font-size: 20px&quot;&gt;Album Name&lt;br&gt;&lt;/font&gt;&lt;/b&gt;&lt;span style=&quot;color: rgb(134 , 142 , 150)&quot;&gt;# Bewertungen&lt;/span&gt;&lt;br&gt;&lt;br&gt;Album Teaser text infos. Description This is a wider card with supporting text below as a natural lead-in to additional content." style="html=1;shadow=0;dashed=0;shape=mxgraph.bootstrap.rrect;rSize=5;strokeColor=#DFDFDF;html=1;whiteSpace=wrap;fillColor=#ffffff;fontColor=#000000;verticalAlign=top;align=left;spacing=20;spacingBottom=0;fontSize=14;spacingTop=160;labelBackgroundColor=#FFFFFF;labelBorderColor=#FFFFFF;" vertex="1" parent="XYZBfUIqV31KoNoUFfLz-1">
          <mxGeometry x="620" y="680" width="260" height="443" as="geometry" />
        </mxCell>
        <mxCell id="l1yf5DWK2-m8T0T3oyTu-31" value="&lt;font&gt;Image cap&lt;/font&gt;" style="html=1;shadow=0;dashed=0;shape=mxgraph.bootstrap.topButton;rSize=5;perimeter=none;whiteSpace=wrap;fillColor=#868E96;strokeColor=#DFDFDF;fontColor=none;resizeWidth=1;fontSize=18;labelBackgroundColor=none;labelBorderColor=none;noLabel=1;" vertex="1" parent="l1yf5DWK2-m8T0T3oyTu-30">
          <mxGeometry width="260" height="160" relative="1" as="geometry" />
        </mxCell>
        <mxCell id="l1yf5DWK2-m8T0T3oyTu-32" value="&lt;span style=&quot;white-space: pre&quot;&gt; &lt;/span&gt;&amp;nbsp; Interpreter Name" style="html=1;shadow=0;dashed=0;shape=mxgraph.bootstrap.bottomButton;rSize=5;perimeter=none;whiteSpace=wrap;fillColor=#F7F7F7;strokeColor=#DFDFDF;fontColor=#000000;resizeWidth=1;fontSize=13;align=left;spacing=20;labelBackgroundColor=none;labelBorderColor=none;" vertex="1" parent="l1yf5DWK2-m8T0T3oyTu-30">
          <mxGeometry y="1" width="260" height="50" relative="1" as="geometry">
            <mxPoint y="-50" as="offset" />
          </mxGeometry>
        </mxCell>
        <mxCell id="l1yf5DWK2-m8T0T3oyTu-33" value="" style="shape=image;html=1;verticalAlign=top;verticalLabelPosition=bottom;labelBackgroundColor=#ffffff;imageAspect=0;aspect=fixed;image=https://cdn0.iconfinder.com/data/icons/eon-social-media-contact-info-2/32/user_people_person_users_man-128.png;labelBorderColor=none;fontSize=13;fontColor=#000000;fillColor=#BABABA;" vertex="1" parent="l1yf5DWK2-m8T0T3oyTu-30">
          <mxGeometry x="20" y="399.7804878048781" width="30" height="30" as="geometry" />
        </mxCell>
        <mxCell id="l1yf5DWK2-m8T0T3oyTu-34" value="" style="shape=image;html=1;verticalAlign=top;verticalLabelPosition=bottom;labelBackgroundColor=#ffffff;imageAspect=0;aspect=fixed;image=https://cdn4.iconfinder.com/data/icons/ionicons/512/icon-ios7-musical-note-128.png;labelBorderColor=none;fontSize=13;fontColor=#000000;fillColor=#BABABA;" vertex="1" parent="l1yf5DWK2-m8T0T3oyTu-30">
          <mxGeometry x="20" y="345.7560975609756" width="30" height="30" as="geometry" />
        </mxCell>
        <mxCell id="l1yf5DWK2-m8T0T3oyTu-35" value="Genres" style="text;html=1;strokeColor=none;fillColor=none;align=center;verticalAlign=middle;whiteSpace=wrap;rounded=0;labelBackgroundColor=none;labelBorderColor=none;fontSize=13;fontColor=#000000;" vertex="1" parent="l1yf5DWK2-m8T0T3oyTu-30">
          <mxGeometry x="50" y="345.7560975609756" width="40" height="32.41463414634146" as="geometry" />
        </mxCell>
        <mxCell id="bOwbzEF5qDyFTc2AQZv3-5" value="" style="group" parent="XYZBfUIqV31KoNoUFfLz-1" vertex="1" connectable="0">
          <mxGeometry x="292" y="664" width="40" height="40" as="geometry" />
        </mxCell>
        <mxCell id="bOwbzEF5qDyFTc2AQZv3-4" value="" style="whiteSpace=wrap;html=1;aspect=fixed;fontSize=16;fillColor=default;rounded=1;strokeWidth=1;strokeColor=#868E96;" parent="bOwbzEF5qDyFTc2AQZv3-5" vertex="1">
          <mxGeometry width="40" height="40" as="geometry" />
        </mxCell>
        <mxCell id="bOwbzEF5qDyFTc2AQZv3-2" value="" style="sketch=0;pointerEvents=1;shadow=0;dashed=0;html=1;strokeColor=none;fillColor=#505050;labelPosition=center;verticalLabelPosition=bottom;verticalAlign=top;outlineConnect=0;align=center;shape=mxgraph.office.concepts.clock;fontSize=16;" parent="bOwbzEF5qDyFTc2AQZv3-5" vertex="1">
          <mxGeometry x="5.824000000000001" y="5.824000000000001" width="28.344" height="28.344" as="geometry" />
        </mxCell>
      </root>
    </mxGraphModel>
  </diagram>
  <diagram name="Copy of Liste Album" id="u9u3CJ6x37wHCyja1Hyg">
    <mxGraphModel dx="1420" dy="1344" grid="1" gridSize="10" guides="1" tooltips="1" connect="1" arrows="1" fold="1" page="1" pageScale="1" pageWidth="827" pageHeight="1169" math="0" shadow="0">
      <root>
        <mxCell id="lrAakH8B28mnRwmRRT2E-0" />
        <mxCell id="lrAakH8B28mnRwmRRT2E-1" parent="lrAakH8B28mnRwmRRT2E-0" />
        <mxCell id="lrAakH8B28mnRwmRRT2E-2" value="" style="rounded=0;whiteSpace=wrap;html=1;fontColor=#FFFFFF;labelBorderColor=#FFFFFF;labelBackgroundColor=#FFFFFF;" parent="lrAakH8B28mnRwmRRT2E-1" vertex="1">
          <mxGeometry x="40" y="40" width="870" height="1170" as="geometry" />
        </mxCell>
        <mxCell id="lrAakH8B28mnRwmRRT2E-3" value="" style="html=1;shadow=0;dashed=0;shape=mxgraph.bootstrap.rrect;rSize=5;strokeColor=none;html=1;whiteSpace=wrap;fillColor=#6C767D;fontColor=#ffffff;sketch=0;labelBackgroundColor=#FFAA00;labelBorderColor=none;fontSize=23;" parent="lrAakH8B28mnRwmRRT2E-1" vertex="1">
          <mxGeometry x="365" y="60" width="220" height="30" as="geometry" />
        </mxCell>
        <mxCell id="lrAakH8B28mnRwmRRT2E-4" value="&lt;font style=&quot;font-size: 16px;&quot;&gt;Alben&lt;/font&gt;" style="strokeColor=inherit;fillColor=inherit;gradientColor=inherit;fontColor=#FFFFFF;html=1;shadow=0;dashed=0;shape=mxgraph.bootstrap.leftButton;rSize=5;perimeter=none;whiteSpace=wrap;resizeHeight=1;sketch=0;fontSize=16;" parent="lrAakH8B28mnRwmRRT2E-3" vertex="1">
          <mxGeometry width="70" height="30" relative="1" as="geometry" />
        </mxCell>
        <mxCell id="lrAakH8B28mnRwmRRT2E-5" value="&lt;font color=&quot;#ffffff&quot; style=&quot;font-size: 16px;&quot;&gt;Songs&lt;/font&gt;" style="strokeColor=#666666;fillColor=#BABABA;fontColor=#333333;html=1;shadow=0;dashed=0;perimeter=none;whiteSpace=wrap;resizeHeight=1;sketch=0;fontSize=16;" parent="lrAakH8B28mnRwmRRT2E-3" vertex="1">
          <mxGeometry width="70" height="30" relative="1" as="geometry">
            <mxPoint x="60" as="offset" />
          </mxGeometry>
        </mxCell>
        <mxCell id="lrAakH8B28mnRwmRRT2E-6" value="&lt;font color=&quot;#ffffff&quot; style=&quot;font-size: 16px;&quot;&gt;Interpreten&lt;/font&gt;" style="strokeColor=#666666;fillColor=#BABABA;fontColor=#333333;html=1;shadow=0;dashed=0;shape=mxgraph.bootstrap.rightButton;rSize=5;perimeter=none;whiteSpace=wrap;resizeHeight=1;sketch=0;fontSize=16;" parent="lrAakH8B28mnRwmRRT2E-3" vertex="1">
          <mxGeometry x="1" width="89" height="30" relative="1" as="geometry">
            <mxPoint x="-89" as="offset" />
          </mxGeometry>
        </mxCell>
        <mxCell id="lrAakH8B28mnRwmRRT2E-7" value="explicit" style="html=1;shadow=0;dashed=0;shape=mxgraph.bootstrap.rrect;rSize=5;strokeColor=#6C767D;strokeWidth=1;fillColor=none;fontColor=#6C767D;whiteSpace=wrap;align=center;verticalAlign=middle;spacingLeft=0;fontStyle=0;fontSize=16;spacing=5;labelBackgroundColor=default;labelBorderColor=none;" parent="lrAakH8B28mnRwmRRT2E-1" vertex="1">
          <mxGeometry x="440" y="130" width="90" height="22" as="geometry" />
        </mxCell>
        <mxCell id="lrAakH8B28mnRwmRRT2E-8" value="" style="shape=rect;fillColor=#F6F6F6;strokeColor=none;labelBackgroundColor=default;labelBorderColor=none;fontSize=13;fontColor=default;" parent="lrAakH8B28mnRwmRRT2E-1" vertex="1">
          <mxGeometry x="60" y="130" width="360" height="30" as="geometry" />
        </mxCell>
        <mxCell id="lrAakH8B28mnRwmRRT2E-9" value="" style="html=1;strokeWidth=1;shadow=0;dashed=0;shape=mxgraph.ios7ui.marginRect;rx=3;ry=3;rectMargin=5;fillColor=#E4E4E4;strokeColor=none;labelBackgroundColor=default;labelBorderColor=none;fontSize=13;fontColor=default;" parent="lrAakH8B28mnRwmRRT2E-8" vertex="1">
          <mxGeometry width="359.99999999999994" height="30" as="geometry" />
        </mxCell>
        <mxCell id="lrAakH8B28mnRwmRRT2E-10" value="Search" style="shape=mxgraph.ios7.icons.looking_glass;strokeColor=#878789;fillColor=none;fontColor=#878789;labelPosition=right;verticalLabelPosition=middle;align=left;verticalAlign=middle;fontSize=6;fontStyle=0;spacingTop=2;sketch=0;labelBackgroundColor=default;labelBorderColor=none;" parent="lrAakH8B28mnRwmRRT2E-8" vertex="1">
          <mxGeometry x="0.5" y="0.5" width="6" height="6" relative="1" as="geometry">
            <mxPoint x="-17" y="-3" as="offset" />
          </mxGeometry>
        </mxCell>
        <mxCell id="lrAakH8B28mnRwmRRT2E-11" value="Spotify" style="html=1;shadow=0;dashed=0;shape=mxgraph.bootstrap.rrect;rSize=5;strokeColor=#6C767D;strokeWidth=1;fillColor=none;fontColor=#6C767D;whiteSpace=wrap;align=center;verticalAlign=middle;spacingLeft=0;fontStyle=0;fontSize=16;spacing=5;labelBackgroundColor=default;labelBorderColor=none;" parent="lrAakH8B28mnRwmRRT2E-1" vertex="1">
          <mxGeometry x="540" y="130" width="90" height="22" as="geometry" />
        </mxCell>
        <mxCell id="lrAakH8B28mnRwmRRT2E-12" value="Apple Music" style="html=1;shadow=0;dashed=0;shape=mxgraph.bootstrap.rrect;rSize=5;strokeColor=#6C767D;strokeWidth=1;fillColor=none;fontColor=#6C767D;whiteSpace=wrap;align=center;verticalAlign=middle;spacingLeft=0;fontStyle=0;fontSize=16;spacing=5;labelBackgroundColor=default;labelBorderColor=none;" parent="lrAakH8B28mnRwmRRT2E-1" vertex="1">
          <mxGeometry x="640" y="130" width="120" height="22" as="geometry" />
        </mxCell>
        <mxCell id="lrAakH8B28mnRwmRRT2E-13" value="&lt;font style=&quot;font-size: 16px;&quot;&gt;veröffentlicht&lt;/font&gt;" style="html=1;shadow=0;dashed=0;shape=mxgraph.bootstrap.rrect;rSize=5;strokeColor=none;strokeWidth=1;fillColor=#6C767D;fontColor=#FFFFFF;whiteSpace=wrap;align=center;verticalAlign=middle;spacingLeft=0;fontStyle=0;fontSize=16;spacing=5;labelBackgroundColor=#757575;labelBorderColor=none;" parent="lrAakH8B28mnRwmRRT2E-1" vertex="1">
          <mxGeometry x="770" y="130" width="110" height="22" as="geometry" />
        </mxCell>
        <mxCell id="lrAakH8B28mnRwmRRT2E-14" value="&lt;b&gt;&lt;font style=&quot;font-size: 20px&quot;&gt;Bigger Love&lt;br&gt;&lt;/font&gt;&lt;/b&gt;&lt;font color=&quot;#868e96&quot;&gt;4 Bewertungen&lt;/font&gt;&lt;br&gt;&lt;br&gt;&lt;em style=&quot;box-sizing: border-box ; margin: 0px ; padding: 0px ; border: 0px ; color: rgb(34 , 34 , 34) ; font-family: &amp;#34;programme&amp;#34; , &amp;#34;arial&amp;#34; , sans-serif ; font-size: 16px&quot;&gt;Bigger Love&lt;/em&gt;&lt;span style=&quot;color: rgb(34 , 34 , 34) ; font-family: &amp;#34;programme&amp;#34; , &amp;#34;arial&amp;#34; , sans-serif ; font-size: 16px&quot;&gt;&amp;nbsp;is the seventh studio album from John Legend, released on June 19, 2020.&lt;/span&gt;&lt;br&gt;&lt;span style=&quot;color: rgba(0 , 0 , 0 , 0) ; font-family: monospace ; font-size: 0px ; background-color: rgb(248 , 249 , 250)&quot;&gt;%3CmxGraphModel%3E%3Croot%3E%3CmxCell%20id%3D%220%22%2F%3E%3CmxCell%20id%3D%221%22%20parent%3D%220%22%2F%3E%3CmxCell%20id%3D%222%22%20value%3D%22Spotify%22%20style%3D%22html%3D1%3Bshadow%3D0%3Bdashed%3D0%3Bshape%3Dmxgraph.bootstrap.rrect%3BrSize%3D5%3BstrokeColor%3D%236C767D%3BstrokeWidth%3D1%3BfillColor%3Dnone%3BfontColor%3D%236C767D%3BwhiteSpace%3Dwrap%3Balign%3Dcenter%3BverticalAlign%3Dmiddle%3BspacingLeft%3D0%3BfontStyle%3D0%3BfontSize%3D13%3Bspacing%3D5%3BlabelBackgroundColor%3Ddefault%3BlabelBorderColor%3Dnone%3B%22%20vertex%3D%221%22%20parent%3D%221%22%3E%3CmxGeometry%20x%3D%22430%22%20y%3D%22240%22%20width%3D%2250%22%20height%3D%2220%22%20as%3D%22geometry%22%2F%3E%3C%2FmxCell%3E%3C%2Froot%3E%3C%2FmxGraphModel%3E&lt;/span&gt;" style="html=1;shadow=0;dashed=0;shape=mxgraph.bootstrap.rrect;rSize=5;strokeColor=#DFDFDF;html=1;whiteSpace=wrap;fillColor=#ffffff;fontColor=#000000;verticalAlign=top;align=left;spacing=20;spacingBottom=0;fontSize=14;spacingTop=160;labelBackgroundColor=#FFFFFF;labelBorderColor=#FFFFFF;" parent="lrAakH8B28mnRwmRRT2E-1" vertex="1">
          <mxGeometry width="260" height="440" relative="1" as="geometry">
            <mxPoint x="60" y="207" as="offset" />
          </mxGeometry>
        </mxCell>
        <mxCell id="lrAakH8B28mnRwmRRT2E-15" value="Image cap" style="html=1;shadow=0;dashed=0;shape=mxgraph.bootstrap.topButton;rSize=5;perimeter=none;whiteSpace=wrap;fillColor=#868E96;strokeColor=#DFDFDF;fontColor=none;resizeWidth=1;fontSize=18;labelBackgroundColor=#FFFFFF;labelBorderColor=#FFFFFF;noLabel=1;" parent="lrAakH8B28mnRwmRRT2E-14" vertex="1">
          <mxGeometry width="260" height="160" relative="1" as="geometry" />
        </mxCell>
        <mxCell id="lrAakH8B28mnRwmRRT2E-16" value="&lt;span style=&quot;white-space: pre&quot;&gt; &lt;/span&gt;John Legend" style="html=1;shadow=0;dashed=0;shape=mxgraph.bootstrap.bottomButton;rSize=5;perimeter=none;whiteSpace=wrap;fillColor=#F7F7F7;strokeColor=#DFDFDF;fontColor=#000000;resizeWidth=1;fontSize=13;align=left;spacing=20;labelBackgroundColor=none;labelBorderColor=none;" parent="lrAakH8B28mnRwmRRT2E-14" vertex="1">
          <mxGeometry y="1" width="260" height="50" relative="1" as="geometry">
            <mxPoint y="-50" as="offset" />
          </mxGeometry>
        </mxCell>
        <mxCell id="lrAakH8B28mnRwmRRT2E-17" value="" style="shape=image;html=1;verticalAlign=top;verticalLabelPosition=bottom;labelBackgroundColor=#ffffff;imageAspect=0;aspect=fixed;image=https://cdn0.iconfinder.com/data/icons/eon-social-media-contact-info-2/32/user_people_person_users_man-128.png;labelBorderColor=none;fontSize=13;fontColor=#000000;fillColor=#BABABA;" parent="lrAakH8B28mnRwmRRT2E-14" vertex="1">
          <mxGeometry x="10" y="397.07317073170736" width="30" height="30" as="geometry" />
        </mxCell>
        <mxCell id="lrAakH8B28mnRwmRRT2E-18" value="" style="shape=image;html=1;verticalAlign=top;verticalLabelPosition=bottom;labelBackgroundColor=#ffffff;imageAspect=0;aspect=fixed;image=https://cdn4.iconfinder.com/data/icons/ionicons/512/icon-ios7-musical-note-128.png;labelBorderColor=none;fontSize=13;fontColor=#000000;fillColor=#BABABA;" parent="lrAakH8B28mnRwmRRT2E-14" vertex="1">
          <mxGeometry x="20" y="342.3414634146342" width="30" height="30" as="geometry" />
        </mxCell>
        <mxCell id="lrAakH8B28mnRwmRRT2E-19" value="Pop" style="text;html=1;strokeColor=none;fillColor=none;align=center;verticalAlign=middle;whiteSpace=wrap;rounded=0;labelBackgroundColor=none;labelBorderColor=none;fontSize=13;fontColor=#000000;" parent="lrAakH8B28mnRwmRRT2E-14" vertex="1">
          <mxGeometry x="50" y="342.3414634146342" width="40" height="32.19512195121952" as="geometry" />
        </mxCell>
        <mxCell id="lrAakH8B28mnRwmRRT2E-20" value="&lt;b&gt;&lt;font style=&quot;font-size: 20px&quot;&gt;Aretha Now&lt;br&gt;&lt;/font&gt;&lt;/b&gt;&lt;span style=&quot;color: rgb(134 , 142 , 150) ; background-color: rgb(255 , 255 , 255)&quot;&gt;# Bewertungen&lt;/span&gt;&lt;br&gt;&lt;br&gt;This card has supporting text below as a natural lead-in to additional content." style="html=1;shadow=0;dashed=0;shape=mxgraph.bootstrap.rrect;rSize=5;strokeColor=#DFDFDF;html=1;whiteSpace=wrap;fillColor=#ffffff;fontColor=default;verticalAlign=top;align=left;spacing=20;spacingBottom=0;fontSize=14;spacingTop=160;labelBackgroundColor=none;labelBorderColor=none;" parent="lrAakH8B28mnRwmRRT2E-1" vertex="1">
          <mxGeometry x="340" y="207" width="260" height="443" as="geometry" />
        </mxCell>
        <mxCell id="lrAakH8B28mnRwmRRT2E-21" value="&lt;font&gt;Image cap&lt;/font&gt;" style="html=1;shadow=0;dashed=0;shape=mxgraph.bootstrap.topButton;rSize=5;perimeter=none;whiteSpace=wrap;fillColor=#868E96;strokeColor=#DFDFDF;fontColor=none;resizeWidth=1;fontSize=18;labelBackgroundColor=#FFFFFF;labelBorderColor=#FFFFFF;noLabel=1;" parent="lrAakH8B28mnRwmRRT2E-20" vertex="1">
          <mxGeometry width="260" height="160" relative="1" as="geometry" />
        </mxCell>
        <mxCell id="lrAakH8B28mnRwmRRT2E-22" value="&lt;span style=&quot;white-space: pre&quot;&gt; &lt;/span&gt;Aretha Franklin" style="html=1;shadow=0;dashed=0;shape=mxgraph.bootstrap.bottomButton;rSize=5;perimeter=none;whiteSpace=wrap;fillColor=#F7F7F7;strokeColor=#DFDFDF;fontColor=#000000;resizeWidth=1;fontSize=13;align=left;spacing=20;labelBackgroundColor=none;labelBorderColor=none;" parent="lrAakH8B28mnRwmRRT2E-20" vertex="1">
          <mxGeometry y="1" width="260" height="50" relative="1" as="geometry">
            <mxPoint y="-50" as="offset" />
          </mxGeometry>
        </mxCell>
        <mxCell id="lrAakH8B28mnRwmRRT2E-23" value="" style="shape=image;html=1;verticalAlign=top;verticalLabelPosition=bottom;labelBackgroundColor=#ffffff;imageAspect=0;aspect=fixed;image=https://cdn0.iconfinder.com/data/icons/eon-social-media-contact-info-2/32/user_people_person_users_man-128.png;labelBorderColor=none;fontSize=13;fontColor=#000000;fillColor=#BABABA;" parent="lrAakH8B28mnRwmRRT2E-20" vertex="1">
          <mxGeometry x="10" y="399.7804878048781" width="30" height="30" as="geometry" />
        </mxCell>
        <mxCell id="lrAakH8B28mnRwmRRT2E-24" value="" style="shape=image;html=1;verticalAlign=top;verticalLabelPosition=bottom;labelBackgroundColor=#ffffff;imageAspect=0;aspect=fixed;image=https://cdn4.iconfinder.com/data/icons/ionicons/512/icon-ios7-musical-note-128.png;labelBorderColor=none;fontSize=13;fontColor=#000000;fillColor=#BABABA;" parent="lrAakH8B28mnRwmRRT2E-20" vertex="1">
          <mxGeometry x="20" y="345.7560975609756" width="30" height="30" as="geometry" />
        </mxCell>
        <mxCell id="lrAakH8B28mnRwmRRT2E-25" value="Soul" style="text;html=1;strokeColor=none;fillColor=none;align=center;verticalAlign=middle;whiteSpace=wrap;rounded=0;labelBackgroundColor=none;labelBorderColor=none;fontSize=13;fontColor=#000000;" parent="lrAakH8B28mnRwmRRT2E-20" vertex="1">
          <mxGeometry x="50" y="345.7560975609756" width="40" height="32.41463414634146" as="geometry" />
        </mxCell>
        <mxCell id="lrAakH8B28mnRwmRRT2E-26" value="&lt;b&gt;&lt;font style=&quot;font-size: 20px&quot;&gt;Album Name&lt;br&gt;&lt;/font&gt;&lt;/b&gt;&lt;span style=&quot;color: rgb(134 , 142 , 150)&quot;&gt;# Bewertungen&lt;/span&gt;&lt;br&gt;&lt;br&gt;Album Teaser text infos. Description This is a wider card with supporting text below as a natural lead-in to additional content." style="html=1;shadow=0;dashed=0;shape=mxgraph.bootstrap.rrect;rSize=5;strokeColor=#DFDFDF;html=1;whiteSpace=wrap;fillColor=#ffffff;fontColor=#000000;verticalAlign=top;align=left;spacing=20;spacingBottom=0;fontSize=14;spacingTop=160;labelBackgroundColor=#FFFFFF;labelBorderColor=#FFFFFF;" parent="lrAakH8B28mnRwmRRT2E-1" vertex="1">
          <mxGeometry x="620" y="207" width="260" height="443" as="geometry" />
        </mxCell>
        <mxCell id="lrAakH8B28mnRwmRRT2E-27" value="&lt;font&gt;Image cap&lt;/font&gt;" style="html=1;shadow=0;dashed=0;shape=mxgraph.bootstrap.topButton;rSize=5;perimeter=none;whiteSpace=wrap;fillColor=#868E96;strokeColor=#DFDFDF;fontColor=none;resizeWidth=1;fontSize=18;labelBackgroundColor=none;labelBorderColor=none;noLabel=1;" parent="lrAakH8B28mnRwmRRT2E-26" vertex="1">
          <mxGeometry width="260" height="160" relative="1" as="geometry" />
        </mxCell>
        <mxCell id="lrAakH8B28mnRwmRRT2E-28" value="&lt;span style=&quot;white-space: pre&quot;&gt; &lt;/span&gt;&amp;nbsp; Interpreter Name" style="html=1;shadow=0;dashed=0;shape=mxgraph.bootstrap.bottomButton;rSize=5;perimeter=none;whiteSpace=wrap;fillColor=#F7F7F7;strokeColor=#DFDFDF;fontColor=#000000;resizeWidth=1;fontSize=13;align=left;spacing=20;labelBackgroundColor=none;labelBorderColor=none;" parent="lrAakH8B28mnRwmRRT2E-26" vertex="1">
          <mxGeometry y="1" width="260" height="50" relative="1" as="geometry">
            <mxPoint y="-50" as="offset" />
          </mxGeometry>
        </mxCell>
        <mxCell id="lrAakH8B28mnRwmRRT2E-29" value="" style="shape=image;html=1;verticalAlign=top;verticalLabelPosition=bottom;labelBackgroundColor=#ffffff;imageAspect=0;aspect=fixed;image=https://cdn0.iconfinder.com/data/icons/eon-social-media-contact-info-2/32/user_people_person_users_man-128.png;labelBorderColor=none;fontSize=13;fontColor=#000000;fillColor=#BABABA;" parent="lrAakH8B28mnRwmRRT2E-26" vertex="1">
          <mxGeometry x="20" y="399.7804878048781" width="30" height="30" as="geometry" />
        </mxCell>
        <mxCell id="lrAakH8B28mnRwmRRT2E-30" value="" style="shape=image;html=1;verticalAlign=top;verticalLabelPosition=bottom;labelBackgroundColor=#ffffff;imageAspect=0;aspect=fixed;image=https://cdn4.iconfinder.com/data/icons/ionicons/512/icon-ios7-musical-note-128.png;labelBorderColor=none;fontSize=13;fontColor=#000000;fillColor=#BABABA;" parent="lrAakH8B28mnRwmRRT2E-26" vertex="1">
          <mxGeometry x="20" y="345.7560975609756" width="30" height="30" as="geometry" />
        </mxCell>
        <mxCell id="lrAakH8B28mnRwmRRT2E-31" value="Genres" style="text;html=1;strokeColor=none;fillColor=none;align=center;verticalAlign=middle;whiteSpace=wrap;rounded=0;labelBackgroundColor=none;labelBorderColor=none;fontSize=13;fontColor=#000000;" parent="lrAakH8B28mnRwmRRT2E-26" vertex="1">
          <mxGeometry x="50" y="345.7560975609756" width="40" height="32.41463414634146" as="geometry" />
        </mxCell>
        <mxCell id="lrAakH8B28mnRwmRRT2E-68" value="" style="html=1;shadow=0;dashed=0;shape=mxgraph.bootstrap.rrect;rSize=5;strokeColor=#DEE2E6;html=1;whiteSpace=wrap;fillColor=#ffffff;fontColor=#0085FC;labelBackgroundColor=none;labelBorderColor=none;fontSize=16;" parent="lrAakH8B28mnRwmRRT2E-1" vertex="1">
          <mxGeometry x="400" y="1159" width="150" height="30" as="geometry" />
        </mxCell>
        <mxCell id="lrAakH8B28mnRwmRRT2E-69" value="&lt;&lt;" style="strokeColor=inherit;fillColor=inherit;gradientColor=inherit;fontColor=inherit;html=1;shadow=0;dashed=0;shape=mxgraph.bootstrap.leftButton;rSize=5;perimeter=none;whiteSpace=wrap;resizeHeight=1;fontSize=14;labelBackgroundColor=none;labelBorderColor=none;" parent="lrAakH8B28mnRwmRRT2E-68" vertex="1">
          <mxGeometry width="30" height="30" relative="1" as="geometry" />
        </mxCell>
        <mxCell id="lrAakH8B28mnRwmRRT2E-70" value="1" style="strokeColor=inherit;fillColor=inherit;gradientColor=inherit;fontColor=inherit;html=1;shadow=0;dashed=0;perimeter=none;whiteSpace=wrap;resizeHeight=1;fontSize=14;labelBackgroundColor=none;labelBorderColor=none;" parent="lrAakH8B28mnRwmRRT2E-68" vertex="1">
          <mxGeometry width="30" height="30" relative="1" as="geometry">
            <mxPoint x="30" as="offset" />
          </mxGeometry>
        </mxCell>
        <mxCell id="lrAakH8B28mnRwmRRT2E-71" value="2" style="strokeColor=inherit;fillColor=inherit;gradientColor=inherit;fontColor=inherit;html=1;shadow=0;dashed=0;perimeter=none;whiteSpace=wrap;resizeHeight=1;fontSize=14;labelBackgroundColor=none;labelBorderColor=none;" parent="lrAakH8B28mnRwmRRT2E-68" vertex="1">
          <mxGeometry width="30" height="30" relative="1" as="geometry">
            <mxPoint x="60" as="offset" />
          </mxGeometry>
        </mxCell>
        <mxCell id="lrAakH8B28mnRwmRRT2E-72" value="3" style="strokeColor=inherit;fillColor=inherit;gradientColor=inherit;fontColor=inherit;html=1;shadow=0;dashed=0;perimeter=none;whiteSpace=wrap;resizeHeight=1;fontSize=14;labelBackgroundColor=none;labelBorderColor=none;" parent="lrAakH8B28mnRwmRRT2E-68" vertex="1">
          <mxGeometry width="30" height="30" relative="1" as="geometry">
            <mxPoint x="90" as="offset" />
          </mxGeometry>
        </mxCell>
        <mxCell id="lrAakH8B28mnRwmRRT2E-73" value="&gt;&gt;" style="strokeColor=inherit;fillColor=inherit;gradientColor=inherit;fontColor=inherit;html=1;shadow=0;dashed=0;shape=mxgraph.bootstrap.rightButton;rSize=5;perimeter=none;whiteSpace=wrap;resizeHeight=1;fontSize=14;labelBackgroundColor=none;labelBorderColor=none;" parent="lrAakH8B28mnRwmRRT2E-68" vertex="1">
          <mxGeometry x="1" width="30" height="30" relative="1" as="geometry">
            <mxPoint x="-30" as="offset" />
          </mxGeometry>
        </mxCell>
        <mxCell id="Y82pO2PVZrqaAOHM0W95-6" value="&lt;b&gt;&lt;font style=&quot;font-size: 20px&quot;&gt;Album Name&lt;br&gt;&lt;/font&gt;&lt;/b&gt;&lt;span style=&quot;color: rgb(134 , 142 , 150)&quot;&gt;# Bewertungen&lt;/span&gt;&lt;br&gt;&lt;br&gt;Album Teaser text infos. Description This is a wider card with supporting text below as a natural lead-in to additional content." style="html=1;shadow=0;dashed=0;shape=mxgraph.bootstrap.rrect;rSize=5;strokeColor=#DFDFDF;html=1;whiteSpace=wrap;fillColor=#ffffff;fontColor=#000000;verticalAlign=top;align=left;spacing=20;spacingBottom=0;fontSize=14;spacingTop=160;labelBackgroundColor=#FFFFFF;labelBorderColor=#FFFFFF;" vertex="1" parent="lrAakH8B28mnRwmRRT2E-1">
          <mxGeometry x="60" y="680" width="260" height="443" as="geometry" />
        </mxCell>
        <mxCell id="Y82pO2PVZrqaAOHM0W95-7" value="&lt;font&gt;Image cap&lt;/font&gt;" style="html=1;shadow=0;dashed=0;shape=mxgraph.bootstrap.topButton;rSize=5;perimeter=none;whiteSpace=wrap;fillColor=#868E96;strokeColor=#DFDFDF;fontColor=none;resizeWidth=1;fontSize=18;labelBackgroundColor=none;labelBorderColor=none;noLabel=1;" vertex="1" parent="Y82pO2PVZrqaAOHM0W95-6">
          <mxGeometry width="260" height="160" relative="1" as="geometry" />
        </mxCell>
        <mxCell id="Y82pO2PVZrqaAOHM0W95-8" value="&lt;span style=&quot;white-space: pre&quot;&gt; &lt;/span&gt;&amp;nbsp; Interpreter Name" style="html=1;shadow=0;dashed=0;shape=mxgraph.bootstrap.bottomButton;rSize=5;perimeter=none;whiteSpace=wrap;fillColor=#F7F7F7;strokeColor=#DFDFDF;fontColor=#000000;resizeWidth=1;fontSize=13;align=left;spacing=20;labelBackgroundColor=none;labelBorderColor=none;" vertex="1" parent="Y82pO2PVZrqaAOHM0W95-6">
          <mxGeometry y="1" width="260" height="50" relative="1" as="geometry">
            <mxPoint y="-50" as="offset" />
          </mxGeometry>
        </mxCell>
        <mxCell id="Y82pO2PVZrqaAOHM0W95-9" value="" style="shape=image;html=1;verticalAlign=top;verticalLabelPosition=bottom;labelBackgroundColor=#ffffff;imageAspect=0;aspect=fixed;image=https://cdn0.iconfinder.com/data/icons/eon-social-media-contact-info-2/32/user_people_person_users_man-128.png;labelBorderColor=none;fontSize=13;fontColor=#000000;fillColor=#BABABA;" vertex="1" parent="Y82pO2PVZrqaAOHM0W95-6">
          <mxGeometry x="20" y="399.7804878048781" width="30" height="30" as="geometry" />
        </mxCell>
        <mxCell id="Y82pO2PVZrqaAOHM0W95-10" value="" style="shape=image;html=1;verticalAlign=top;verticalLabelPosition=bottom;labelBackgroundColor=#ffffff;imageAspect=0;aspect=fixed;image=https://cdn4.iconfinder.com/data/icons/ionicons/512/icon-ios7-musical-note-128.png;labelBorderColor=none;fontSize=13;fontColor=#000000;fillColor=#BABABA;" vertex="1" parent="Y82pO2PVZrqaAOHM0W95-6">
          <mxGeometry x="20" y="345.7560975609756" width="30" height="30" as="geometry" />
        </mxCell>
        <mxCell id="Y82pO2PVZrqaAOHM0W95-11" value="Genres" style="text;html=1;strokeColor=none;fillColor=none;align=center;verticalAlign=middle;whiteSpace=wrap;rounded=0;labelBackgroundColor=none;labelBorderColor=none;fontSize=13;fontColor=#000000;" vertex="1" parent="Y82pO2PVZrqaAOHM0W95-6">
          <mxGeometry x="50" y="345.7560975609756" width="40" height="32.41463414634146" as="geometry" />
        </mxCell>
        <mxCell id="Y82pO2PVZrqaAOHM0W95-12" value="&lt;b&gt;&lt;font style=&quot;font-size: 20px&quot;&gt;Album Name&lt;br&gt;&lt;/font&gt;&lt;/b&gt;&lt;span style=&quot;color: rgb(134 , 142 , 150)&quot;&gt;# Bewertungen&lt;/span&gt;&lt;br&gt;&lt;br&gt;Album Teaser text infos. Description This is a wider card with supporting text below as a natural lead-in to additional content." style="html=1;shadow=0;dashed=0;shape=mxgraph.bootstrap.rrect;rSize=5;strokeColor=#DFDFDF;html=1;whiteSpace=wrap;fillColor=#ffffff;fontColor=#000000;verticalAlign=top;align=left;spacing=20;spacingBottom=0;fontSize=14;spacingTop=160;labelBackgroundColor=#FFFFFF;labelBorderColor=#FFFFFF;" vertex="1" parent="lrAakH8B28mnRwmRRT2E-1">
          <mxGeometry x="340" y="680" width="260" height="443" as="geometry" />
        </mxCell>
        <mxCell id="Y82pO2PVZrqaAOHM0W95-13" value="&lt;font&gt;Image cap&lt;/font&gt;" style="html=1;shadow=0;dashed=0;shape=mxgraph.bootstrap.topButton;rSize=5;perimeter=none;whiteSpace=wrap;fillColor=#868E96;strokeColor=#DFDFDF;fontColor=none;resizeWidth=1;fontSize=18;labelBackgroundColor=none;labelBorderColor=none;noLabel=1;" vertex="1" parent="Y82pO2PVZrqaAOHM0W95-12">
          <mxGeometry width="260" height="160" relative="1" as="geometry" />
        </mxCell>
        <mxCell id="Y82pO2PVZrqaAOHM0W95-14" value="&lt;span style=&quot;white-space: pre&quot;&gt; &lt;/span&gt;&amp;nbsp; Interpreter Name" style="html=1;shadow=0;dashed=0;shape=mxgraph.bootstrap.bottomButton;rSize=5;perimeter=none;whiteSpace=wrap;fillColor=#F7F7F7;strokeColor=#DFDFDF;fontColor=#000000;resizeWidth=1;fontSize=13;align=left;spacing=20;labelBackgroundColor=none;labelBorderColor=none;" vertex="1" parent="Y82pO2PVZrqaAOHM0W95-12">
          <mxGeometry y="1" width="260" height="50" relative="1" as="geometry">
            <mxPoint y="-50" as="offset" />
          </mxGeometry>
        </mxCell>
        <mxCell id="Y82pO2PVZrqaAOHM0W95-15" value="" style="shape=image;html=1;verticalAlign=top;verticalLabelPosition=bottom;labelBackgroundColor=#ffffff;imageAspect=0;aspect=fixed;image=https://cdn0.iconfinder.com/data/icons/eon-social-media-contact-info-2/32/user_people_person_users_man-128.png;labelBorderColor=none;fontSize=13;fontColor=#000000;fillColor=#BABABA;" vertex="1" parent="Y82pO2PVZrqaAOHM0W95-12">
          <mxGeometry x="20" y="399.7804878048781" width="30" height="30" as="geometry" />
        </mxCell>
        <mxCell id="Y82pO2PVZrqaAOHM0W95-16" value="" style="shape=image;html=1;verticalAlign=top;verticalLabelPosition=bottom;labelBackgroundColor=#ffffff;imageAspect=0;aspect=fixed;image=https://cdn4.iconfinder.com/data/icons/ionicons/512/icon-ios7-musical-note-128.png;labelBorderColor=none;fontSize=13;fontColor=#000000;fillColor=#BABABA;" vertex="1" parent="Y82pO2PVZrqaAOHM0W95-12">
          <mxGeometry x="20" y="345.7560975609756" width="30" height="30" as="geometry" />
        </mxCell>
        <mxCell id="Y82pO2PVZrqaAOHM0W95-17" value="Genres" style="text;html=1;strokeColor=none;fillColor=none;align=center;verticalAlign=middle;whiteSpace=wrap;rounded=0;labelBackgroundColor=none;labelBorderColor=none;fontSize=13;fontColor=#000000;" vertex="1" parent="Y82pO2PVZrqaAOHM0W95-12">
          <mxGeometry x="50" y="345.7560975609756" width="40" height="32.41463414634146" as="geometry" />
        </mxCell>
        <mxCell id="Y82pO2PVZrqaAOHM0W95-18" value="&lt;b&gt;&lt;font style=&quot;font-size: 20px&quot;&gt;Album Name&lt;br&gt;&lt;/font&gt;&lt;/b&gt;&lt;span style=&quot;color: rgb(134 , 142 , 150)&quot;&gt;# Bewertungen&lt;/span&gt;&lt;br&gt;&lt;br&gt;Album Teaser text infos. Description This is a wider card with supporting text below as a natural lead-in to additional content." style="html=1;shadow=0;dashed=0;shape=mxgraph.bootstrap.rrect;rSize=5;strokeColor=#DFDFDF;html=1;whiteSpace=wrap;fillColor=#ffffff;fontColor=#000000;verticalAlign=top;align=left;spacing=20;spacingBottom=0;fontSize=14;spacingTop=160;labelBackgroundColor=#FFFFFF;labelBorderColor=#FFFFFF;" vertex="1" parent="lrAakH8B28mnRwmRRT2E-1">
          <mxGeometry x="620" y="680" width="260" height="443" as="geometry" />
        </mxCell>
        <mxCell id="Y82pO2PVZrqaAOHM0W95-19" value="&lt;font&gt;Image cap&lt;/font&gt;" style="html=1;shadow=0;dashed=0;shape=mxgraph.bootstrap.topButton;rSize=5;perimeter=none;whiteSpace=wrap;fillColor=#868E96;strokeColor=#DFDFDF;fontColor=none;resizeWidth=1;fontSize=18;labelBackgroundColor=none;labelBorderColor=none;noLabel=1;" vertex="1" parent="Y82pO2PVZrqaAOHM0W95-18">
          <mxGeometry width="260" height="160" relative="1" as="geometry" />
        </mxCell>
        <mxCell id="Y82pO2PVZrqaAOHM0W95-20" value="&lt;span style=&quot;white-space: pre&quot;&gt; &lt;/span&gt;&amp;nbsp; Interpreter Name" style="html=1;shadow=0;dashed=0;shape=mxgraph.bootstrap.bottomButton;rSize=5;perimeter=none;whiteSpace=wrap;fillColor=#F7F7F7;strokeColor=#DFDFDF;fontColor=#000000;resizeWidth=1;fontSize=13;align=left;spacing=20;labelBackgroundColor=none;labelBorderColor=none;" vertex="1" parent="Y82pO2PVZrqaAOHM0W95-18">
          <mxGeometry y="1" width="260" height="50" relative="1" as="geometry">
            <mxPoint y="-50" as="offset" />
          </mxGeometry>
        </mxCell>
        <mxCell id="Y82pO2PVZrqaAOHM0W95-21" value="" style="shape=image;html=1;verticalAlign=top;verticalLabelPosition=bottom;labelBackgroundColor=#ffffff;imageAspect=0;aspect=fixed;image=https://cdn0.iconfinder.com/data/icons/eon-social-media-contact-info-2/32/user_people_person_users_man-128.png;labelBorderColor=none;fontSize=13;fontColor=#000000;fillColor=#BABABA;" vertex="1" parent="Y82pO2PVZrqaAOHM0W95-18">
          <mxGeometry x="20" y="399.7804878048781" width="30" height="30" as="geometry" />
        </mxCell>
        <mxCell id="Y82pO2PVZrqaAOHM0W95-22" value="" style="shape=image;html=1;verticalAlign=top;verticalLabelPosition=bottom;labelBackgroundColor=#ffffff;imageAspect=0;aspect=fixed;image=https://cdn4.iconfinder.com/data/icons/ionicons/512/icon-ios7-musical-note-128.png;labelBorderColor=none;fontSize=13;fontColor=#000000;fillColor=#BABABA;" vertex="1" parent="Y82pO2PVZrqaAOHM0W95-18">
          <mxGeometry x="20" y="345.7560975609756" width="30" height="30" as="geometry" />
        </mxCell>
        <mxCell id="Y82pO2PVZrqaAOHM0W95-23" value="Genres" style="text;html=1;strokeColor=none;fillColor=none;align=center;verticalAlign=middle;whiteSpace=wrap;rounded=0;labelBackgroundColor=none;labelBorderColor=none;fontSize=13;fontColor=#000000;" vertex="1" parent="Y82pO2PVZrqaAOHM0W95-18">
          <mxGeometry x="50" y="345.7560975609756" width="40" height="32.41463414634146" as="geometry" />
        </mxCell>
      </root>
    </mxGraphModel>
  </diagram>
  <diagram id="S2Iw6PCAuiq5i_ZhvmaS" name="Detailseite Album">
    <mxGraphModel dx="1420" dy="1344" grid="1" gridSize="10" guides="1" tooltips="1" connect="1" arrows="1" fold="1" page="1" pageScale="1" pageWidth="827" pageHeight="1169" math="0" shadow="0">
      <root>
        <mxCell id="4_jjUXFNRmKOS6LjU5Za-0" />
        <mxCell id="4_jjUXFNRmKOS6LjU5Za-1" parent="4_jjUXFNRmKOS6LjU5Za-0" />
        <mxCell id="kaWDknDuUTWrD3hoHv2B-0" value="" style="rounded=0;whiteSpace=wrap;html=1;fontColor=#FFFFFF;labelBorderColor=#FFFFFF;labelBackgroundColor=#FFFFFF;" parent="4_jjUXFNRmKOS6LjU5Za-1" vertex="1">
          <mxGeometry x="40" y="40" width="870" height="1570" as="geometry" />
        </mxCell>
        <mxCell id="VQd-kak4hTA449HYvydm-0" value="" style="shape=image;html=1;verticalAlign=top;verticalLabelPosition=bottom;labelBackgroundColor=#ffffff;imageAspect=0;aspect=fixed;image=https://cdn4.iconfinder.com/data/icons/ionicons/512/icon-image-128.png;labelBorderColor=none;fontSize=16;fontColor=default;fillColor=#BABABA;" parent="4_jjUXFNRmKOS6LjU5Za-1" vertex="1">
          <mxGeometry x="520" y="60" width="360" height="360" as="geometry" />
        </mxCell>
        <mxCell id="VQd-kak4hTA449HYvydm-1" value="&lt;h1&gt;&lt;b&gt;Album Titel&lt;/b&gt;&lt;/h1&gt;" style="text;html=1;strokeColor=none;fillColor=none;align=left;verticalAlign=middle;whiteSpace=wrap;rounded=0;labelBackgroundColor=default;labelBorderColor=none;fontSize=16;fontColor=default;" parent="4_jjUXFNRmKOS6LjU5Za-1" vertex="1">
          <mxGeometry x="110" y="120" width="200" height="30" as="geometry" />
        </mxCell>
        <mxCell id="VQd-kak4hTA449HYvydm-2" value="&lt;span&gt;Album lange Beschreibung. Lorem ipsum dolor sit amet, consectetur adipisicing elit, sed do eiusmod tempor incididunt ut labore et dolore magna aliqua.&amp;nbsp;&lt;/span&gt;Lorem ipsum dolor sit amet, consectetur adipisicing elit, sed do eiusmod tempor incididunt ut labore et dolore magna aliqua." style="text;html=1;strokeColor=none;fillColor=none;align=left;verticalAlign=middle;whiteSpace=wrap;rounded=0;labelBackgroundColor=default;labelBorderColor=none;fontSize=16;fontColor=default;" parent="4_jjUXFNRmKOS6LjU5Za-1" vertex="1">
          <mxGeometry x="110" y="210" width="366" height="140" as="geometry" />
        </mxCell>
        <mxCell id="HBChk8OQGkviFOlTgscv-0" value="" style="shape=image;html=1;verticalAlign=top;verticalLabelPosition=bottom;labelBackgroundColor=#ffffff;imageAspect=0;aspect=fixed;image=https://cdn0.iconfinder.com/data/icons/eon-social-media-contact-info-2/32/user_people_person_users_man-128.png;labelBorderColor=none;fontSize=13;fontColor=#000000;fillColor=#BABABA;" parent="4_jjUXFNRmKOS6LjU5Za-1" vertex="1">
          <mxGeometry x="110" y="170" width="30" height="30" as="geometry" />
        </mxCell>
        <mxCell id="HBChk8OQGkviFOlTgscv-1" value="Interpret(en)" style="text;html=1;strokeColor=none;fillColor=none;align=center;verticalAlign=middle;whiteSpace=wrap;rounded=0;labelBackgroundColor=default;labelBorderColor=none;fontSize=16;fontColor=default;" parent="4_jjUXFNRmKOS6LjU5Za-1" vertex="1">
          <mxGeometry x="150" y="170" width="100" height="30" as="geometry" />
        </mxCell>
        <mxCell id="HBChk8OQGkviFOlTgscv-2" value="" style="sketch=0;pointerEvents=1;shadow=0;dashed=0;html=1;strokeColor=none;fillColor=#505050;labelPosition=center;verticalLabelPosition=bottom;verticalAlign=top;outlineConnect=0;align=center;shape=mxgraph.office.concepts.clock;labelBackgroundColor=default;labelBorderColor=none;fontSize=16;fontColor=default;" parent="4_jjUXFNRmKOS6LjU5Za-1" vertex="1">
          <mxGeometry x="300" y="170" width="27" height="27" as="geometry" />
        </mxCell>
        <mxCell id="HBChk8OQGkviFOlTgscv-3" value="Dauer" style="text;html=1;strokeColor=none;fillColor=none;align=center;verticalAlign=middle;whiteSpace=wrap;rounded=0;labelBackgroundColor=default;labelBorderColor=none;fontSize=16;fontColor=default;" parent="4_jjUXFNRmKOS6LjU5Za-1" vertex="1">
          <mxGeometry x="340" y="170" width="60" height="30" as="geometry" />
        </mxCell>
        <mxCell id="UibiB1NnwAhN-xpZr1Sm-0" value="&lt;font style=&quot;font-size: 16px&quot;&gt;Erschienen am: Erscheinungsdatum&lt;/font&gt;" style="text;html=1;strokeColor=none;fillColor=none;align=left;verticalAlign=middle;whiteSpace=wrap;rounded=0;" parent="4_jjUXFNRmKOS6LjU5Za-1" vertex="1">
          <mxGeometry x="110" y="360" width="270" height="30" as="geometry" />
        </mxCell>
        <mxCell id="c9f7CjtJihL6IuMemqI6-0" value="" style="shape=image;html=1;verticalAlign=top;verticalLabelPosition=bottom;labelBackgroundColor=#ffffff;imageAspect=0;aspect=fixed;image=https://cdn2.iconfinder.com/data/icons/social-media-2420/512/Spotify-128.png;rounded=1;fontSize=16;strokeColor=#868E96;strokeWidth=1;fillColor=default;" parent="4_jjUXFNRmKOS6LjU5Za-1" vertex="1">
          <mxGeometry x="110" y="410" width="30" height="30" as="geometry" />
        </mxCell>
        <mxCell id="c9f7CjtJihL6IuMemqI6-2" value="" style="shape=image;html=1;verticalAlign=top;verticalLabelPosition=bottom;labelBackgroundColor=#ffffff;imageAspect=0;aspect=fixed;image=https://cdn1.iconfinder.com/data/icons/social-media-vol-3-1/24/_apple-128.png;rounded=1;fontSize=13;strokeColor=#868E96;strokeWidth=1;fillColor=default;" parent="4_jjUXFNRmKOS6LjU5Za-1" vertex="1">
          <mxGeometry x="110" y="457" width="30" height="30" as="geometry" />
        </mxCell>
        <mxCell id="c9f7CjtJihL6IuMemqI6-3" value="verfügbar" style="text;html=1;strokeColor=none;fillColor=none;align=center;verticalAlign=middle;whiteSpace=wrap;rounded=0;fontSize=13;" parent="4_jjUXFNRmKOS6LjU5Za-1" vertex="1">
          <mxGeometry x="150" y="410" width="60" height="30" as="geometry" />
        </mxCell>
        <mxCell id="c9f7CjtJihL6IuMemqI6-4" value="nicht verfügabar" style="text;html=1;strokeColor=none;fillColor=none;align=left;verticalAlign=middle;whiteSpace=wrap;rounded=0;fontSize=13;" parent="4_jjUXFNRmKOS6LjU5Za-1" vertex="1">
          <mxGeometry x="150" y="457" width="110" height="30" as="geometry" />
        </mxCell>
        <mxCell id="c9f7CjtJihL6IuMemqI6-5" value="weitere Alben des*der Künstlers*in" style="html=1;shadow=0;dashed=0;shape=mxgraph.bootstrap.rrect;rSize=5;strokeColor=none;strokeWidth=1;fillColor=none;fontColor=#0085FC;whiteSpace=wrap;align=left;verticalAlign=middle;spacingLeft=0;fontStyle=0;fontSize=16;spacing=5;rounded=1;" parent="4_jjUXFNRmKOS6LjU5Za-1" vertex="1">
          <mxGeometry x="550" y="405" width="260" height="40" as="geometry" />
        </mxCell>
        <mxCell id="uST9eODFDhkYI_63Bptu-0" value="" style="html=1;shadow=0;dashed=0;shape=mxgraph.bootstrap.rrect;rSize=5;strokeColor=#DFDFDF;html=1;whiteSpace=wrap;fillColor=#FFFFFF;fontColor=#000000;rounded=1;fontSize=13;" parent="4_jjUXFNRmKOS6LjU5Za-1" vertex="1">
          <mxGeometry x="110" y="600" width="750" height="90" as="geometry" />
        </mxCell>
        <mxCell id="uST9eODFDhkYI_63Bptu-1" value="&lt;b&gt;&lt;u&gt;Song Name&lt;/u&gt;&lt;/b&gt;" style="strokeColor=inherit;fillColor=inherit;gradientColor=inherit;fontColor=inherit;html=1;shadow=0;dashed=0;shape=mxgraph.bootstrap.topButton;rSize=5;perimeter=none;whiteSpace=wrap;resizeWidth=1;align=left;spacing=10;rounded=1;fontSize=13;" parent="uST9eODFDhkYI_63Bptu-0" vertex="1">
          <mxGeometry width="750" height="30" relative="1" as="geometry" />
        </mxCell>
        <mxCell id="uST9eODFDhkYI_63Bptu-2" value="&lt;b&gt;&lt;u&gt;Song Name&lt;/u&gt;&lt;/b&gt;" style="strokeColor=inherit;fillColor=inherit;gradientColor=inherit;fontColor=inherit;html=1;shadow=0;dashed=0;perimeter=none;whiteSpace=wrap;resizeWidth=1;align=left;spacing=10;rounded=1;fontSize=13;" parent="uST9eODFDhkYI_63Bptu-0" vertex="1">
          <mxGeometry width="750" height="30" relative="1" as="geometry">
            <mxPoint y="30" as="offset" />
          </mxGeometry>
        </mxCell>
        <mxCell id="uST9eODFDhkYI_63Bptu-3" value="&lt;b&gt;&lt;u&gt;Song Name&lt;/u&gt;&lt;/b&gt;" style="strokeColor=inherit;fillColor=inherit;gradientColor=inherit;fontColor=inherit;html=1;shadow=0;dashed=0;shape=mxgraph.bootstrap.bottomButton;rSize=5;perimeter=none;whiteSpace=wrap;resizeWidth=1;resizeHeight=0;align=left;spacing=10;rounded=1;fontSize=13;" parent="uST9eODFDhkYI_63Bptu-0" vertex="1">
          <mxGeometry y="1" width="750" height="30" relative="1" as="geometry">
            <mxPoint y="-30" as="offset" />
          </mxGeometry>
        </mxCell>
        <mxCell id="uST9eODFDhkYI_63Bptu-4" value="E" style="whiteSpace=wrap;html=1;aspect=fixed;rounded=1;fontSize=13;strokeColor=#868E96;strokeWidth=1;fillColor=default;" parent="uST9eODFDhkYI_63Bptu-0" vertex="1">
          <mxGeometry x="720" y="35" width="20" height="20" as="geometry" />
        </mxCell>
        <mxCell id="uST9eODFDhkYI_63Bptu-6" value="Interpret" style="text;html=1;strokeColor=none;fillColor=none;align=left;verticalAlign=middle;whiteSpace=wrap;rounded=0;fontSize=13;" parent="uST9eODFDhkYI_63Bptu-0" vertex="1">
          <mxGeometry x="230" width="60" height="30" as="geometry" />
        </mxCell>
        <mxCell id="uST9eODFDhkYI_63Bptu-13" value="Interpret, Interpret" style="text;html=1;strokeColor=none;fillColor=none;align=left;verticalAlign=middle;whiteSpace=wrap;rounded=0;fontSize=13;" parent="uST9eODFDhkYI_63Bptu-0" vertex="1">
          <mxGeometry x="230" y="30" width="120" height="30" as="geometry" />
        </mxCell>
        <mxCell id="uST9eODFDhkYI_63Bptu-14" value="Interpret" style="text;html=1;strokeColor=none;fillColor=none;align=left;verticalAlign=middle;whiteSpace=wrap;rounded=0;fontSize=13;" parent="uST9eODFDhkYI_63Bptu-0" vertex="1">
          <mxGeometry x="230" y="60" width="60" height="30" as="geometry" />
        </mxCell>
        <mxCell id="cA3rI5sdmxBtmMHDn6Dn-17" value="03:02 min" style="text;html=1;strokeColor=none;fillColor=none;align=left;verticalAlign=middle;whiteSpace=wrap;rounded=0;fontSize=13;" vertex="1" parent="uST9eODFDhkYI_63Bptu-0">
          <mxGeometry x="520" width="60" height="30" as="geometry" />
        </mxCell>
        <mxCell id="cA3rI5sdmxBtmMHDn6Dn-18" value="03:02 min" style="text;html=1;strokeColor=none;fillColor=none;align=left;verticalAlign=middle;whiteSpace=wrap;rounded=0;fontSize=13;" vertex="1" parent="uST9eODFDhkYI_63Bptu-0">
          <mxGeometry x="520" y="30" width="60" height="30" as="geometry" />
        </mxCell>
        <mxCell id="cA3rI5sdmxBtmMHDn6Dn-19" value="xx:yy min" style="text;html=1;strokeColor=none;fillColor=none;align=left;verticalAlign=middle;whiteSpace=wrap;rounded=0;fontSize=13;" vertex="1" parent="uST9eODFDhkYI_63Bptu-0">
          <mxGeometry x="520" y="60" width="60" height="30" as="geometry" />
        </mxCell>
        <mxCell id="uST9eODFDhkYI_63Bptu-16" value="12.000+ Mal angehört" style="text;html=1;strokeColor=none;fillColor=none;align=left;verticalAlign=middle;whiteSpace=wrap;rounded=0;fontSize=13;" parent="4_jjUXFNRmKOS6LjU5Za-1" vertex="1">
          <mxGeometry x="590" y="457" width="130" height="30" as="geometry" />
        </mxCell>
        <mxCell id="uST9eODFDhkYI_63Bptu-17" value="" style="shape=image;html=1;verticalAlign=top;verticalLabelPosition=bottom;labelBackgroundColor=#ffffff;imageAspect=0;aspect=fixed;image=https://cdn4.iconfinder.com/data/icons/48-bubbles/48/21.Music-128.png;rounded=1;fontSize=13;strokeColor=#868E96;strokeWidth=1;fillColor=default;" parent="4_jjUXFNRmKOS6LjU5Za-1" vertex="1">
          <mxGeometry x="550" y="457" width="30" height="30" as="geometry" />
        </mxCell>
        <mxCell id="cA3rI5sdmxBtmMHDn6Dn-1" value="" style="rounded=1;whiteSpace=wrap;html=1;fontColor=#868E96;" vertex="1" parent="4_jjUXFNRmKOS6LjU5Za-1">
          <mxGeometry x="110" y="530" width="750" height="36" as="geometry" />
        </mxCell>
        <mxCell id="cA3rI5sdmxBtmMHDn6Dn-2" value="&lt;font color=&quot;#000000&quot;&gt;&lt;b&gt;# Bewertungen&lt;/b&gt;&lt;/font&gt;" style="text;html=1;strokeColor=none;fillColor=none;align=center;verticalAlign=middle;whiteSpace=wrap;rounded=0;fontColor=#868E96;" vertex="1" parent="4_jjUXFNRmKOS6LjU5Za-1">
          <mxGeometry x="150" y="533" width="90" height="30" as="geometry" />
        </mxCell>
        <mxCell id="cA3rI5sdmxBtmMHDn6Dn-3" value="" style="verticalLabelPosition=bottom;verticalAlign=top;html=1;shape=mxgraph.basic.star;fontColor=#000000;aspect=fixed;" vertex="1" parent="4_jjUXFNRmKOS6LjU5Za-1">
          <mxGeometry x="827" y="536.13" width="25" height="23.75" as="geometry" />
        </mxCell>
        <mxCell id="cA3rI5sdmxBtmMHDn6Dn-4" value="" style="verticalLabelPosition=bottom;verticalAlign=top;html=1;shape=mxgraph.basic.star;fontColor=#000000;aspect=fixed;" vertex="1" parent="4_jjUXFNRmKOS6LjU5Za-1">
          <mxGeometry x="795" y="536" width="25" height="23.75" as="geometry" />
        </mxCell>
        <mxCell id="cA3rI5sdmxBtmMHDn6Dn-5" value="" style="verticalLabelPosition=bottom;verticalAlign=top;html=1;shape=mxgraph.basic.star;aspect=fixed;fillColor=#FFD966;strokeColor=#d6b656;" vertex="1" parent="4_jjUXFNRmKOS6LjU5Za-1">
          <mxGeometry x="763" y="536.13" width="25" height="23.75" as="geometry" />
        </mxCell>
        <mxCell id="cA3rI5sdmxBtmMHDn6Dn-6" value="" style="verticalLabelPosition=bottom;verticalAlign=top;html=1;shape=mxgraph.basic.star;aspect=fixed;fillColor=#FFD966;strokeColor=#d6b656;" vertex="1" parent="4_jjUXFNRmKOS6LjU5Za-1">
          <mxGeometry x="732" y="535.87" width="25" height="23.75" as="geometry" />
        </mxCell>
        <mxCell id="cA3rI5sdmxBtmMHDn6Dn-7" value="" style="verticalLabelPosition=bottom;verticalAlign=top;html=1;shape=mxgraph.basic.star;aspect=fixed;fillColor=#FFD966;strokeColor=#d6b656;" vertex="1" parent="4_jjUXFNRmKOS6LjU5Za-1">
          <mxGeometry x="700" y="536" width="25" height="23.75" as="geometry" />
        </mxCell>
        <mxCell id="cA3rI5sdmxBtmMHDn6Dn-8" value="" style="shape=image;html=1;verticalAlign=top;verticalLabelPosition=bottom;labelBackgroundColor=#ffffff;imageAspect=0;aspect=fixed;image=https://cdn4.iconfinder.com/data/icons/ionicons/512/icon-ios7-arrow-down-128.png;fontColor=#000000;fillColor=#FFD966;" vertex="1" parent="4_jjUXFNRmKOS6LjU5Za-1">
          <mxGeometry x="120" y="539.88" width="20" height="20" as="geometry" />
        </mxCell>
        <mxCell id="cA3rI5sdmxBtmMHDn6Dn-9" value="" style="html=1;shadow=0;dashed=0;shape=mxgraph.bootstrap.rrect;rSize=5;strokeColor=#DFDFDF;html=1;whiteSpace=wrap;fillColor=#FFFFFF;fontColor=#000000;rounded=1;fontSize=13;" vertex="1" parent="4_jjUXFNRmKOS6LjU5Za-1">
          <mxGeometry x="110" y="690" width="750" height="90" as="geometry" />
        </mxCell>
        <mxCell id="cA3rI5sdmxBtmMHDn6Dn-10" value="&lt;b&gt;&lt;u&gt;Song Name&lt;/u&gt;&lt;/b&gt;" style="strokeColor=inherit;fillColor=inherit;gradientColor=inherit;fontColor=inherit;html=1;shadow=0;dashed=0;shape=mxgraph.bootstrap.topButton;rSize=5;perimeter=none;whiteSpace=wrap;resizeWidth=1;align=left;spacing=10;rounded=1;fontSize=13;" vertex="1" parent="cA3rI5sdmxBtmMHDn6Dn-9">
          <mxGeometry width="750" height="30" relative="1" as="geometry" />
        </mxCell>
        <mxCell id="cA3rI5sdmxBtmMHDn6Dn-11" value="&lt;b&gt;&lt;u&gt;Song Name&lt;/u&gt;&lt;/b&gt;" style="strokeColor=inherit;fillColor=inherit;gradientColor=inherit;fontColor=inherit;html=1;shadow=0;dashed=0;perimeter=none;whiteSpace=wrap;resizeWidth=1;align=left;spacing=10;rounded=1;fontSize=13;" vertex="1" parent="cA3rI5sdmxBtmMHDn6Dn-9">
          <mxGeometry width="750" height="30" relative="1" as="geometry">
            <mxPoint y="30" as="offset" />
          </mxGeometry>
        </mxCell>
        <mxCell id="cA3rI5sdmxBtmMHDn6Dn-12" value="&lt;b&gt;&lt;u&gt;Song Name&lt;/u&gt;&lt;/b&gt;" style="strokeColor=inherit;fillColor=inherit;gradientColor=inherit;fontColor=inherit;html=1;shadow=0;dashed=0;shape=mxgraph.bootstrap.bottomButton;rSize=5;perimeter=none;whiteSpace=wrap;resizeWidth=1;resizeHeight=0;align=left;spacing=10;rounded=1;fontSize=13;" vertex="1" parent="cA3rI5sdmxBtmMHDn6Dn-9">
          <mxGeometry y="1" width="750" height="30" relative="1" as="geometry">
            <mxPoint y="-30" as="offset" />
          </mxGeometry>
        </mxCell>
        <mxCell id="cA3rI5sdmxBtmMHDn6Dn-13" value="E" style="whiteSpace=wrap;html=1;aspect=fixed;rounded=1;fontSize=13;strokeColor=#868E96;strokeWidth=1;fillColor=default;" vertex="1" parent="cA3rI5sdmxBtmMHDn6Dn-9">
          <mxGeometry x="720" y="65" width="20" height="20" as="geometry" />
        </mxCell>
        <mxCell id="cA3rI5sdmxBtmMHDn6Dn-14" value="Interpret" style="text;html=1;strokeColor=none;fillColor=none;align=left;verticalAlign=middle;whiteSpace=wrap;rounded=0;fontSize=13;" vertex="1" parent="cA3rI5sdmxBtmMHDn6Dn-9">
          <mxGeometry x="230" width="60" height="30" as="geometry" />
        </mxCell>
        <mxCell id="cA3rI5sdmxBtmMHDn6Dn-15" value="Interpret, Interpret" style="text;html=1;strokeColor=none;fillColor=none;align=left;verticalAlign=middle;whiteSpace=wrap;rounded=0;fontSize=13;" vertex="1" parent="cA3rI5sdmxBtmMHDn6Dn-9">
          <mxGeometry x="230" y="30" width="120" height="30" as="geometry" />
        </mxCell>
        <mxCell id="cA3rI5sdmxBtmMHDn6Dn-16" value="Interpret" style="text;html=1;strokeColor=none;fillColor=none;align=left;verticalAlign=middle;whiteSpace=wrap;rounded=0;fontSize=13;" vertex="1" parent="cA3rI5sdmxBtmMHDn6Dn-9">
          <mxGeometry x="230" y="60" width="60" height="30" as="geometry" />
        </mxCell>
        <mxCell id="cA3rI5sdmxBtmMHDn6Dn-31" value="xx:yy min" style="text;html=1;strokeColor=none;fillColor=none;align=left;verticalAlign=middle;whiteSpace=wrap;rounded=0;fontSize=13;" vertex="1" parent="cA3rI5sdmxBtmMHDn6Dn-9">
          <mxGeometry x="520" width="60" height="30" as="geometry" />
        </mxCell>
        <mxCell id="cA3rI5sdmxBtmMHDn6Dn-32" value="xx:yy min" style="text;html=1;strokeColor=none;fillColor=none;align=left;verticalAlign=middle;whiteSpace=wrap;rounded=0;fontSize=13;" vertex="1" parent="cA3rI5sdmxBtmMHDn6Dn-9">
          <mxGeometry x="520" y="30" width="60" height="30" as="geometry" />
        </mxCell>
        <mxCell id="cA3rI5sdmxBtmMHDn6Dn-33" value="xx:yy min" style="text;html=1;strokeColor=none;fillColor=none;align=left;verticalAlign=middle;whiteSpace=wrap;rounded=0;fontSize=13;" vertex="1" parent="cA3rI5sdmxBtmMHDn6Dn-9">
          <mxGeometry x="520" y="60" width="60" height="30" as="geometry" />
        </mxCell>
        <mxCell id="cA3rI5sdmxBtmMHDn6Dn-34" value="" style="html=1;shadow=0;dashed=0;shape=mxgraph.bootstrap.rrect;rSize=5;strokeColor=#DFDFDF;html=1;whiteSpace=wrap;fillColor=#FFFFFF;fontColor=#000000;rounded=1;fontSize=13;" vertex="1" parent="4_jjUXFNRmKOS6LjU5Za-1">
          <mxGeometry x="110" y="780" width="750" height="90" as="geometry" />
        </mxCell>
        <mxCell id="cA3rI5sdmxBtmMHDn6Dn-35" value="&lt;b&gt;&lt;u&gt;Song Name&lt;/u&gt;&lt;/b&gt;" style="strokeColor=inherit;fillColor=inherit;gradientColor=inherit;fontColor=inherit;html=1;shadow=0;dashed=0;shape=mxgraph.bootstrap.topButton;rSize=5;perimeter=none;whiteSpace=wrap;resizeWidth=1;align=left;spacing=10;rounded=1;fontSize=13;" vertex="1" parent="cA3rI5sdmxBtmMHDn6Dn-34">
          <mxGeometry width="750" height="30" relative="1" as="geometry" />
        </mxCell>
        <mxCell id="cA3rI5sdmxBtmMHDn6Dn-36" value="&lt;b&gt;&lt;u&gt;Song Name&lt;/u&gt;&lt;/b&gt;" style="strokeColor=inherit;fillColor=inherit;gradientColor=inherit;fontColor=inherit;html=1;shadow=0;dashed=0;perimeter=none;whiteSpace=wrap;resizeWidth=1;align=left;spacing=10;rounded=1;fontSize=13;" vertex="1" parent="cA3rI5sdmxBtmMHDn6Dn-34">
          <mxGeometry width="750" height="30" relative="1" as="geometry">
            <mxPoint y="30" as="offset" />
          </mxGeometry>
        </mxCell>
        <mxCell id="cA3rI5sdmxBtmMHDn6Dn-37" value="&lt;b&gt;&lt;u&gt;Song Name&lt;/u&gt;&lt;/b&gt;" style="strokeColor=inherit;fillColor=inherit;gradientColor=inherit;fontColor=inherit;html=1;shadow=0;dashed=0;shape=mxgraph.bootstrap.bottomButton;rSize=5;perimeter=none;whiteSpace=wrap;resizeWidth=1;resizeHeight=0;align=left;spacing=10;rounded=1;fontSize=13;" vertex="1" parent="cA3rI5sdmxBtmMHDn6Dn-34">
          <mxGeometry y="1" width="750" height="30" relative="1" as="geometry">
            <mxPoint y="-30" as="offset" />
          </mxGeometry>
        </mxCell>
        <mxCell id="cA3rI5sdmxBtmMHDn6Dn-39" value="Interpret" style="text;html=1;strokeColor=none;fillColor=none;align=left;verticalAlign=middle;whiteSpace=wrap;rounded=0;fontSize=13;" vertex="1" parent="cA3rI5sdmxBtmMHDn6Dn-34">
          <mxGeometry x="230" width="60" height="30" as="geometry" />
        </mxCell>
        <mxCell id="cA3rI5sdmxBtmMHDn6Dn-40" value="Interpret, Interpret" style="text;html=1;strokeColor=none;fillColor=none;align=left;verticalAlign=middle;whiteSpace=wrap;rounded=0;fontSize=13;" vertex="1" parent="cA3rI5sdmxBtmMHDn6Dn-34">
          <mxGeometry x="230" y="30" width="120" height="30" as="geometry" />
        </mxCell>
        <mxCell id="cA3rI5sdmxBtmMHDn6Dn-41" value="Interpret" style="text;html=1;strokeColor=none;fillColor=none;align=left;verticalAlign=middle;whiteSpace=wrap;rounded=0;fontSize=13;" vertex="1" parent="cA3rI5sdmxBtmMHDn6Dn-34">
          <mxGeometry x="230" y="60" width="60" height="30" as="geometry" />
        </mxCell>
        <mxCell id="cA3rI5sdmxBtmMHDn6Dn-42" value="xx:yy min" style="text;html=1;strokeColor=none;fillColor=none;align=left;verticalAlign=middle;whiteSpace=wrap;rounded=0;fontSize=13;" vertex="1" parent="cA3rI5sdmxBtmMHDn6Dn-34">
          <mxGeometry x="520" width="60" height="30" as="geometry" />
        </mxCell>
        <mxCell id="cA3rI5sdmxBtmMHDn6Dn-43" value="xx:yy min" style="text;html=1;strokeColor=none;fillColor=none;align=left;verticalAlign=middle;whiteSpace=wrap;rounded=0;fontSize=13;" vertex="1" parent="cA3rI5sdmxBtmMHDn6Dn-34">
          <mxGeometry x="520" y="30" width="60" height="30" as="geometry" />
        </mxCell>
        <mxCell id="cA3rI5sdmxBtmMHDn6Dn-44" value="xx:yy min" style="text;html=1;strokeColor=none;fillColor=none;align=left;verticalAlign=middle;whiteSpace=wrap;rounded=0;fontSize=13;" vertex="1" parent="cA3rI5sdmxBtmMHDn6Dn-34">
          <mxGeometry x="520" y="60" width="60" height="30" as="geometry" />
        </mxCell>
      </root>
    </mxGraphModel>
  </diagram>
  <diagram id="Awknpw6X8kqWZMpUEXXj" name="Detailseite Interpret">
    <mxGraphModel dx="812" dy="1099" grid="1" gridSize="10" guides="1" tooltips="1" connect="1" arrows="1" fold="1" page="1" pageScale="1" pageWidth="827" pageHeight="1169" math="0" shadow="0">
      <root>
        <mxCell id="0-agXxawK0llzCKph_U6-0" />
        <mxCell id="0-agXxawK0llzCKph_U6-1" parent="0-agXxawK0llzCKph_U6-0" />
      </root>
    </mxGraphModel>
  </diagram>
  <diagram id="Vnqd-kdooC-pmAg6eNth" name="Detailseite Song">
    <mxGraphModel dx="812" dy="1099" grid="1" gridSize="10" guides="1" tooltips="1" connect="1" arrows="1" fold="1" page="1" pageScale="1" pageWidth="827" pageHeight="1169" math="0" shadow="0">
      <root>
        <mxCell id="qsy3mus6qKSCpFztut5y-0" />
        <mxCell id="qsy3mus6qKSCpFztut5y-1" parent="qsy3mus6qKSCpFztut5y-0" />
      </root>
    </mxGraphModel>
  </diagram>
</mxfile>
